<svg width="456" height="90" viewBox="0 0 456 90" fill="none" xmlns="http://www.w3.org/2000/svg">
<path d="M41.1306 0C54.9541 28.04 68.551 55.6136 82.3145 83.5337C78.1175 85.4057 74.0604 87.3576 69.8634 88.9365C69.2239 89.1763 67.6916 87.8839 66.9788 86.9779C61.6893 80.296 55.5537 74.8865 46.9198 72.9945C48.965 69.7502 52.4092 68.8308 59.6974 69.7702C53.5551 57.2191 47.566 44.9812 41.2106 32.0038C34.8818 44.8413 28.8527 57.0792 22.4506 70.07C27.7069 68.9308 32.0438 69.1639 36.1475 72.848C25.9948 75.1863 19.0131 81.3552 13.2972 89.4428C8.90697 87.4575 4.70331 85.5589 0 83.4337C13.6636 55.7069 27.2472 28.1599 41.1306 0Z" fill="#F3B028"/>
<path d="M213.1 59.1412C214.342 57.0825 215.475 55.1943 216.596 53.3305C219.361 54.6461 221.87 56.2054 224.587 57.0215C226.633 57.6428 229.094 57.7768 231.141 57.2408C232.481 56.8876 234.174 55.0238 234.296 53.7203C234.405 52.5021 232.883 50.4922 231.616 49.944C228.388 48.5918 224.843 48.0193 221.529 46.8498C215.901 44.852 213.587 40.6737 214.659 34.9605C215.438 30.8187 219.105 27.3348 224.088 26.5917C230.325 25.6537 236.233 26.75 241.751 30.4898C240.801 32.4511 239.887 34.3271 239.132 35.8498C235.258 34.79 231.64 33.5596 227.925 32.8774C225.501 32.4389 223.052 33.1942 222.467 36.0934C221.87 39.0414 224.185 39.9063 226.365 40.625C229.143 41.5386 232.018 42.1964 234.771 43.1953C240.886 45.4368 243.018 48.8111 242.25 54.6705C241.593 59.6528 237.658 63.2708 232.14 63.9164C225.354 64.7082 219.032 63.5509 213.1 59.1412Z" fill="#474949"/>
<path d="M114.343 32.9867V42.6955H130.362V48.8716H114.355V63.4165H107.314V27.2734H132.872V32.9988H114.331L114.343 32.9867Z" fill="#474949"/>
<path d="M273.229 52.3558H253.032C253.154 55.4987 254.981 57.1188 257.235 58.0934C261.218 59.8232 264.532 58.1665 267.626 55.3038C269.087 56.2174 270.525 57.131 271.987 58.0447C267.553 64.2208 259.476 65.9018 252.703 62.2473C246.588 58.9461 244.005 51.8685 246.515 45.2782C248.951 38.8707 256.248 35.3258 263.35 37.1043C270.001 38.7732 274.094 44.9372 273.217 52.3558H273.229ZM266.907 47.4709C265.847 43.5606 263.228 41.7699 259.098 41.977C255.712 42.1475 253.665 43.987 253.044 47.4709H266.907Z" fill="#474949"/>
<path d="M424.818 55.426C426.134 56.2665 427.51 57.1314 428.862 57.9841C426.365 64.0384 416.522 65.3906 410.894 62.7472C404.377 59.7017 401.307 53.2698 403.391 46.4237C405.559 39.2609 412.283 35.4723 420.055 37.0194C426.889 38.3838 431.116 44.4015 430.507 52.2953H410.176C411.491 59.3363 417.875 60.6032 424.83 55.426H424.818ZM409.871 47.3739H424.173C422.662 43.3052 420.079 41.6363 415.986 42.0139C412.795 42.3063 410.602 43.8899 409.871 47.3739Z" fill="#474949"/>
<path d="M154.201 48.9449C153.616 41.7212 149.45 40.5518 140.131 44.8032C139.364 43.2805 138.584 41.7577 137.671 39.967C143.164 36.6536 148.805 35.4233 154.81 37.8596C157.953 39.1265 160.024 41.6237 160.109 45.1564C160.243 51.162 160.146 57.1676 160.146 63.5021C157.734 63.1123 154.761 65.4999 153.616 61.3825C146.502 65.1222 141.118 64.9882 137.61 60.9561C135.502 58.5319 135.271 53.6836 137.159 51.0646C140.192 46.8375 146.6 45.9848 154.201 48.9449ZM148.598 51.1255C144.139 51.1255 141.715 52.77 141.995 55.6327C142.287 58.5928 144.322 59.7136 147.148 59.7257C150.949 59.7501 153.823 57.5818 153.811 54.5972C153.799 50.492 150.51 51.5884 148.61 51.1133L148.598 51.1255Z" fill="#474949"/>
<path d="M306.656 37.1895H313.222C313.222 39.7476 313.21 42.2692 313.222 44.803C313.246 47.5073 313.125 50.236 313.368 52.9282C313.709 56.7533 315.415 58.3612 318.594 58.2638C321.956 58.1663 324.856 55.6447 324.941 52.4044C325.075 47.4708 324.977 42.525 324.977 37.3235H331.361V63.441H325.075C325.014 62.3203 324.965 61.297 324.941 60.8219C322.127 61.8817 319.362 63.575 316.438 63.8795C310.761 64.4765 306.948 60.9438 306.705 55.2184C306.461 49.3468 306.644 43.463 306.644 37.1895H306.656Z" fill="#474949"/>
<path d="M432.821 60.2006C433.93 58.5926 434.795 57.35 435.684 56.0466C437.95 56.9359 440.045 57.9469 442.25 58.556C443.675 58.9458 445.344 59.092 446.733 58.7144C447.78 58.422 449.169 57.2039 449.279 56.2659C449.364 55.4741 448 54.0854 446.989 53.6955C444.711 52.8063 442.226 52.5139 439.887 51.7465C435.757 50.3821 433.735 47.6412 433.979 44.0476C434.21 40.6368 436.829 38.0299 440.837 37.0432C445.941 35.7763 450.558 36.9457 455.211 39.711C454.31 41.1606 453.457 42.5127 452.811 43.536C449.595 42.8782 446.696 42.0133 443.748 41.8184C442.664 41.7453 441.47 43.2436 440.325 44.0355C441.227 44.9369 441.97 46.216 443.066 46.6545C445.222 47.5316 447.61 47.8118 449.815 48.567C453.944 49.9558 455.613 52.2581 455.504 56.0222C455.394 59.7377 453.201 62.7709 449.352 63.6358C443.505 64.9514 437.962 64.1231 432.797 60.2006H432.821Z" fill="#474949"/>
<path d="M302.331 42.8906C299.469 44.1696 297.191 45.5218 294.096 43.2682C291.209 41.1608 287.165 42.4398 284.985 45.2294C282.646 48.214 282.646 52.4166 284.985 55.3402C287.263 58.1908 291.709 59.5795 294.425 57.3624C297.69 54.6946 299.822 56.4244 302.38 57.9471C299.164 63.0756 293.134 65.2927 286.958 63.7213C280.879 62.1742 276.506 57.1066 276.214 51.2716C275.897 45.0223 279.686 39.4675 285.618 37.4453C292.147 35.2283 297.946 37.0312 302.319 42.9027L302.331 42.8906Z" fill="#474949"/>
<path d="M369.758 42.7451V37.4826C370.891 37.3851 371.902 37.312 373.205 37.2024V29.333H379.467V37.1537H385.959V42.7085H379.564C379.564 47.1305 379.211 51.3575 379.674 55.4871C380.051 58.9223 382.951 58.4473 385.667 57.8504C386.203 59.3974 386.715 60.908 387.299 62.6012C383.73 64.5137 380.21 64.6356 376.774 62.9301C373.437 61.2734 373.035 58.1062 373.144 54.7684C373.242 51.9422 373.022 49.1039 373.205 46.2899C373.376 43.7683 372.901 42.136 369.758 42.7572V42.7451Z" fill="#474949"/>
<path d="M338.719 37.1898H344.688C344.773 38.4445 344.858 39.5774 344.931 40.6981C347.709 39.151 350.523 37.5674 353.885 35.6914V43.1101C353.069 43.2075 352.192 43.3293 351.302 43.4146C346.637 43.8653 344.846 45.79 344.846 50.3703C344.846 54.6827 344.846 59.0072 344.846 63.49H338.731V37.1898H338.719Z" fill="#474949"/>
<path d="M187.044 63.514H180.904V37.2747H186.91C186.983 38.4807 187.068 39.6257 187.141 40.7586C189.919 39.1994 192.721 37.6279 196.071 35.752V43.1462C194.962 43.2437 193.817 43.2802 192.708 43.463C188.749 44.1086 187.068 46.1064 187.056 50.1142C187.056 54.463 187.056 58.7997 187.056 63.514H187.044Z" fill="#474949"/>
<path d="M364.617 37.2627V63.4412H358.562V37.2627H364.617Z" fill="#474949"/>
<path d="M397.653 63.4905H391.732V37.2998H397.653V63.4905Z" fill="#474949"/>
<path d="M167.467 37.2266H173.411V63.5025H167.467V37.2266Z" fill="#474949"/>
<path d="M173.412 32.5123H167.346V25.9951H173.412V32.5123Z" fill="#474949"/>
<path d="M358.648 25.958H364.593V32.4874H358.648V25.958Z" fill="#474949"/>
<path d="M391.621 32.4513V25.9463H397.724V32.4513H391.621Z" fill="#474949"/>
</svg>
