<svg width="32" height="32" viewBox="0 0 32 32" fill="none" xmlns="http://www.w3.org/2000/svg">
<path fill-rule="evenodd" clip-rule="evenodd" d="M32 22.0352C32 22.4156 32 22.796 31.9978 23.177C31.9961 23.4973 31.9922 23.8177 31.9833 24.138C31.9643 24.8354 31.9225 25.54 31.797 26.2297C31.6698 26.9305 31.4624 27.5827 31.1339 28.2195C30.8121 28.8447 30.3916 29.417 29.8896 29.9132C29.3877 30.4094 28.8083 30.8257 28.1758 31.1438C27.5322 31.468 26.873 31.6736 26.1642 31.7993C25.4659 31.9234 24.7538 31.9647 24.0477 31.9835C22.6902 32 22.3054 32 21.9206 32H14.5003H10.0799C8.60091 31.9956 8.27689 31.9923 7.95286 31.9835C7.24681 31.9647 6.53462 31.9234 5.83637 31.7993C5.12753 31.6736 4.46833 31.468 3.82473 31.1438C3.19174 30.8257 2.61284 30.4094 2.11091 29.9132C1.60898 29.417 1.18847 28.8447 0.866115 28.2195C0.538184 27.5827 0.330719 26.9305 0.203004 26.2297C0.0775209 25.54 0.0362508 24.8354 0.0172888 24.138C0.00836556 23.8177 0.00446163 23.4973 0.00278852 23.177C0 22.796 0 22.4156 0 22.0352V17.6653V14.3347V9.9648C0 9.58438 0 9.20341 0.00278852 8.82354C0.00446163 8.50267 0.00836556 8.18234 0.0172888 7.86202C0.0362508 7.16403 0.0775209 6.45998 0.203004 5.76971C0.330719 5.06896 0.538184 4.41728 0.866115 3.78049C1.18847 3.15473 1.60898 2.58245 2.11091 2.0868C2.61284 1.59005 3.19174 1.17434 3.82473 0.856221C4.46833 0.532037 5.12753 0.326389 5.83637 0.200685C6.53462 0.0766354 7.24681 0.0352853 7.95286 0.01654C9.31031 0 9.69513 0 10.0799 0H14.5003H21.605L17.4997 0.001654L21.9206 0C23.3991 0.00441067 23.7231 0.00771867 24.0477 0.01654C24.7538 0.0352853 25.4659 0.0766354 26.1642 0.200685C26.873 0.326389 27.5322 0.532037 28.1758 0.856221C28.8083 1.17434 29.3877 1.59005 29.8896 2.0868C30.3916 2.58245 30.8121 3.15473 31.1339 3.78049C31.4624 4.41728 31.6698 5.06896 31.797 5.76971C31.9225 6.45998 31.9643 7.16403 31.9833 7.86202C31.9922 8.18234 31.9961 8.50267 31.9978 8.82354C32 9.20341 32 9.58438 32 9.9648V14.3347V17.6653V22.0352Z" fill="white"/>
<mask id="mask0_258_4525" style="mask-type:luminance" maskUnits="userSpaceOnUse" x="0" y="0" width="32" height="32">
<path fill-rule="evenodd" clip-rule="evenodd" d="M32 22.0352C32 22.4156 32 22.796 31.9978 23.177C31.9961 23.4973 31.9922 23.8177 31.9833 24.138C31.9643 24.8354 31.9225 25.54 31.797 26.2297C31.6698 26.9305 31.4624 27.5827 31.1339 28.2195C30.8121 28.8447 30.3916 29.417 29.8896 29.9132C29.3877 30.4094 28.8083 30.8257 28.1758 31.1438C27.5322 31.468 26.873 31.6736 26.1642 31.7993C25.4659 31.9234 24.7538 31.9647 24.0477 31.9835C22.6902 32 22.3054 32 21.9206 32H14.5003H10.0799C8.60091 31.9956 8.27689 31.9923 7.95286 31.9835C7.24681 31.9647 6.53462 31.9234 5.83637 31.7993C5.12753 31.6736 4.46833 31.468 3.82473 31.1438C3.19174 30.8257 2.61284 30.4094 2.11091 29.9132C1.60898 29.417 1.18847 28.8447 0.866114 28.2195C0.538184 27.5827 0.330719 26.9305 0.203004 26.2297C0.0775209 25.54 0.0362508 24.8354 0.0172888 24.138C0.00836556 23.8177 0.00446163 23.4973 0.00278852 23.177C0 22.796 0 22.4156 0 22.0352V17.6653V14.3347V9.9648C0 9.58438 0 9.20341 0.00278852 8.82354C0.00446163 8.50267 0.00836556 8.18234 0.0172888 7.86202C0.0362508 7.16403 0.0775209 6.45997 0.203004 5.76971C0.330719 5.06896 0.538184 4.41728 0.866114 3.78049C1.18847 3.15473 1.60898 2.58245 2.11091 2.0868C2.61284 1.59005 3.19174 1.17434 3.82473 0.856221C4.46833 0.532037 5.12753 0.326389 5.83637 0.200685C6.53462 0.0766354 7.24681 0.0352853 7.95286 0.01654C9.31031 0 9.69513 0 10.0799 0H14.5003H21.605L17.4997 0.001654L21.9206 0C23.3991 0.00441067 23.7231 0.00771867 24.0477 0.01654C24.7538 0.0352853 25.4659 0.0766354 26.1642 0.200685C26.873 0.326389 27.5322 0.532037 28.1758 0.856221C28.8083 1.17434 29.3877 1.59005 29.8896 2.0868C30.3916 2.58245 30.8121 3.15473 31.1339 3.78049C31.4624 4.41728 31.6698 5.06896 31.797 5.76971C31.9225 6.45997 31.9643 7.16403 31.9833 7.86202C31.9922 8.18234 31.9961 8.50267 31.9978 8.82354C32 9.20341 32 9.58438 32 9.9648V14.3347V17.6653V22.0352Z" fill="white"/>
</mask>
<g mask="url(#mask0_258_4525)">
</g>
<g clip-path="url(#clip0_258_4525)">
<path d="M15.9882 9.31055C16.023 9.35919 16.0447 9.38453 16.0609 9.41257C16.9858 11.0152 17.9104 12.6185 18.8354 14.2211C18.8834 14.3042 18.9249 14.3755 18.8624 14.4823C17.9831 15.9876 17.1625 17.5304 16.2207 18.9959C14.7261 21.3215 12.5327 22.5248 9.7794 22.7086C9.31388 22.7397 8.84498 22.7235 8.37777 22.7282C8.34534 22.7282 8.31291 22.7211 8.24805 22.7133C10.83 18.2429 13.4022 13.7887 15.9882 9.31055Z" fill="#25B89B"/>
<path d="M23.7511 22.7244C23.6021 22.7244 23.5018 22.7244 23.4015 22.7244C21.9488 22.7224 20.4955 22.744 19.0436 22.7129C17.2193 22.6737 16.0349 20.6846 16.8791 19.0658C17.4068 18.0543 18.0095 17.0821 18.5784 16.0923C18.7939 15.7173 19.0098 15.3426 19.2442 14.9355C20.7486 17.5354 22.2387 20.111 23.7508 22.7244H23.7511Z" fill="#4884FF"/>
</g>
<defs>
<clipPath id="clip0_258_4525">
<rect width="15.503" height="13.42" fill="white" transform="translate(8.24805 9.31055)"/>
</clipPath>
</defs>
</svg>
