<svg width="450" height="111" viewBox="0 0 450 111" fill="none" xmlns="http://www.w3.org/2000/svg">
<g clip-path="url(#clip0_245_55)">
<path d="M63.5942 0C63.8801 0.39969 64.0577 0.607862 64.191 0.83824C71.7906 14.0058 79.3875 27.1789 86.9872 40.3465C87.3813 41.0293 87.7227 41.615 87.2092 42.4921C79.9843 54.8603 73.2423 67.5366 65.5038 79.5772C53.2245 98.6847 35.2023 108.571 12.5809 110.081C8.75613 110.337 4.90356 110.204 1.06486 110.242C0.798404 110.242 0.531944 110.184 -0.000976562 110.12C21.2131 73.3904 42.3468 36.7937 63.5942 0Z" fill="#25B89B"/>
<path d="M127.374 110.218C126.15 110.218 125.326 110.218 124.501 110.218C112.566 110.201 100.626 110.379 88.6959 110.123C73.7075 109.801 63.9761 93.4583 70.9124 80.1575C75.2479 71.8473 80.1997 63.859 84.8738 55.7264C86.6447 52.6455 88.4183 49.5673 90.3446 46.2227C102.704 67.5839 114.948 88.7453 127.371 110.218H127.374Z" fill="#4884FF"/>
</g>
<path d="M178.778 76.7084C184.165 80.8982 189.359 79.8096 194.46 76.3553C196.026 78.3266 197.475 80.1568 198.918 81.9692C193.064 88.1951 182.137 89.3073 174.571 83.6581C169.616 79.9567 164.633 76.8673 158.907 74.3663C147.829 69.5174 142.179 56.7831 144.948 45.6376C148.016 33.2799 158.258 25.1651 170.732 25.218C186.549 25.2769 198.427 37.1873 197.697 52.9404C197.171 64.3036 190.376 71.4475 180.361 75.8257C179.923 76.0199 179.473 76.1846 179.035 76.3788C178.959 76.4141 178.918 76.526 178.778 76.7084ZM171.346 34.6746C162.29 34.6746 155.074 42.0598 155.08 51.3516C155.08 60.6316 162.085 68.3169 170.896 68.1463C180.56 67.958 187.478 59.7666 187.308 51.0986C187.133 42.1481 180.017 34.6805 171.346 34.6746Z" fill="#4B4B4B"/>
<path d="M450 76.3727H440.523C440.424 74.9016 440.324 73.4893 440.202 71.7062C436.462 75.6195 432.133 77.5908 426.88 76.82C421.931 76.0962 417.982 73.6599 415.031 69.576C409.235 61.5553 410.772 49.3329 418.42 42.801C424.835 37.3225 433.892 37.905 440.196 44.3605V24.0703H450V76.3727ZM431.256 68.2167C436.831 68.2226 440.845 63.9327 440.845 57.9539C440.845 52.2282 436.492 47.5911 431.145 47.6264C425.776 47.6558 421.54 52.2635 421.557 58.0422C421.575 63.9503 425.642 68.2167 431.256 68.2225V68.2167Z" fill="#4B4B4B"/>
<path d="M276.196 76.3374H266.351V24.082H276.026V55.4411C279.135 51.6691 282.062 48.7032 284.27 45.2725C287.04 40.965 290.452 38.9113 295.565 39.8234C296.973 40.0764 298.463 39.8646 300.613 39.8646C295.512 45.808 290.797 51.3101 285.959 56.9535C291.083 63.2735 296.219 69.5995 301.775 76.4492C297.674 76.4492 294.127 76.5433 290.598 76.3727C289.85 76.3374 288.997 75.4488 288.442 74.7485C284.475 69.7289 280.578 64.6623 276.196 59.019V76.3374Z" fill="#4B4B4B"/>
<path d="M305.337 23.9814H314.978V55.0875C318.933 50.2209 322.497 45.778 326.149 41.3999C326.71 40.729 327.621 39.9758 328.404 39.9346C331.776 39.7757 335.159 39.864 339.173 39.864C334.054 45.8192 329.322 51.3155 324.536 56.8823C329.754 63.3024 334.901 69.6284 340.446 76.4427C336.327 76.4427 332.775 76.5369 329.228 76.3721C328.469 76.3368 327.586 75.5012 327.037 74.8068C323.134 69.8461 319.307 64.8324 315.048 59.295V76.3074H305.343V23.9814H305.337Z" fill="#4B4B4B"/>
<path d="M379.529 60.4126C380.551 65.2851 383.338 67.5036 387.34 68.4451C392.167 69.5809 396.157 68.3098 399.16 64.0375C401.562 65.6852 403.876 67.2741 406.3 68.9394C401.159 75.5067 394.434 77.837 386.645 76.8366C378.559 75.795 372.576 71.5228 370.578 63.2725C367.218 49.4261 376.718 39.434 387.779 39.2221C400.428 38.975 408.421 47.3194 407.34 60.4185H379.529V60.4126ZM397.489 53.9396C396.315 48.7023 393.212 46.2601 388.199 46.4426C384.039 46.5956 380.89 49.4908 380.189 53.9396H397.484H397.489Z" fill="#4B4B4B"/>
<path d="M239.034 76.309H229.966C229.902 74.8849 229.837 73.5668 229.779 72.3604C227.64 73.7139 225.718 75.4675 223.463 76.2561C214.751 79.3043 205.578 73.0489 204.76 63.7277C204.655 62.5567 204.556 61.3798 204.55 60.2087C204.532 53.5532 204.538 46.8977 204.538 40.0245H214.231C214.231 44.7911 214.196 49.6517 214.249 54.5065C214.278 57.0428 214.167 59.632 214.629 62.0977C215.435 66.3993 218 68.2942 222.195 68.2177C225.969 68.153 228.651 65.9639 229.341 61.8741C229.773 59.2966 229.715 56.6191 229.744 53.9828C229.802 49.3869 229.761 44.791 229.761 40.001H239.034V76.2973V76.309Z" fill="#4B4B4B"/>
<path d="M344.647 39.9639H354.183C354.253 41.5057 354.311 42.9415 354.399 44.907C357.35 40.3641 361.229 38.428 366.429 38.8635V48.1847C365.337 48.1847 364.209 48.173 363.081 48.1847C357.887 48.2612 354.393 51.7802 354.358 57.0705C354.317 63.4141 354.346 69.7636 354.346 76.2779H344.647V39.958V39.9639Z" fill="#4B4B4B"/>
<path d="M248.372 39.9697H257.615V76.3131H248.372V39.9697Z" fill="#4B4B4B"/>
<path d="M258.742 28.7602C258.76 32.2321 256.358 34.8684 253.098 34.9626C249.873 35.0567 247.249 32.4557 247.156 29.0721C247.062 25.7767 249.639 22.9815 252.835 22.905C256.171 22.8285 258.725 25.3589 258.742 28.7602Z" fill="#4B4B4B"/>
<defs>
<clipPath id="clip0_245_55">
<rect width="127.376" height="110.262" fill="white"/>
</clipPath>
</defs>
</svg>
