<svg width="489" height="129" viewBox="0 0 489 129" fill="none" xmlns="http://www.w3.org/2000/svg">
<g clip-path="url(#clip0_245_70)">
<path d="M74.247 0C74.5808 0.466636 74.7882 0.709676 74.9437 0.97864C83.8163 16.3517 92.6856 31.7313 101.558 47.1043C102.018 47.9015 102.417 48.5852 101.817 49.6093C93.3823 64.049 85.5111 78.8485 76.4765 92.906C62.1404 115.214 41.0996 126.757 14.6893 128.519C10.2239 128.817 5.72601 128.662 1.24436 128.707C0.933272 128.707 0.622181 128.639 0 128.565C24.7674 85.6828 49.4407 42.9564 74.247 0Z" fill="white"/>
<path d="M148.711 128.678C147.282 128.678 146.32 128.678 145.357 128.678C131.423 128.659 117.482 128.866 103.555 128.568C86.0557 128.192 74.6944 109.112 82.7925 93.5836C87.8542 83.8814 93.6353 74.5552 99.0923 65.0604C101.16 61.4634 103.23 57.8697 105.479 53.9648C119.909 78.904 134.203 103.61 148.708 128.678H148.711Z" fill="white"/>
</g>
<path d="M213.997 86.037C219.446 90.2447 224.7 89.1514 229.859 85.6824C231.443 87.6622 232.908 89.5001 234.368 91.3203C228.446 97.5729 217.395 98.6898 209.742 93.0164C204.73 89.2992 199.689 86.1965 193.898 83.6849C182.693 78.8152 176.978 66.0265 179.779 54.8334C182.882 42.4228 193.242 34.2732 205.859 34.3264C221.857 34.3855 233.872 46.3469 233.133 62.1674C232.601 73.5792 225.728 80.7536 215.599 85.1505C215.155 85.3455 214.7 85.511 214.257 85.706C214.18 85.7415 214.139 85.8538 213.997 86.037ZM206.48 43.8234C197.32 43.8234 190.021 51.2402 190.027 60.5718C190.027 69.8915 197.113 77.6096 206.025 77.4383C215.799 77.2491 222.797 69.0227 222.625 60.3176C222.448 51.3289 215.25 43.8294 206.48 43.8234Z" fill="white"/>
<path d="M488.328 85.6999H478.742C478.642 84.2225 478.542 82.8041 478.417 81.0135C474.635 84.9435 470.256 86.9233 464.943 86.1491C459.938 85.4222 455.943 82.9755 452.958 78.8741C447.096 70.8191 448.65 58.5445 456.386 51.9847C462.875 46.4826 472.035 47.0677 478.411 53.5507V33.1738H488.328V85.6999ZM469.37 77.509C475.007 77.5149 479.067 73.2067 479.067 67.2023C479.067 61.4521 474.665 56.7952 469.257 56.8307C463.826 56.8602 459.542 61.4876 459.559 67.291C459.577 73.2244 463.69 77.509 469.37 77.5149V77.509Z" fill="white"/>
<path d="M312.532 85.6644H302.574V33.1855H312.361V64.6787C315.505 60.8906 318.466 57.9121 320.699 54.4667C323.501 50.1407 326.952 48.0782 332.123 48.9942C333.547 49.2483 335.054 49.0356 337.229 49.0356C332.07 55.0044 327.301 60.5301 322.407 66.1976C327.59 72.5447 332.785 78.8977 338.405 85.7766C334.257 85.7766 330.669 85.8712 327.1 85.6998C326.343 85.6644 325.481 84.772 324.919 84.0687C320.906 79.0277 316.965 73.9394 312.532 68.2719V85.6644Z" fill="white"/>
<path d="M342.008 33.085H351.759V64.324C355.76 59.4367 359.365 54.9748 363.058 50.5779C363.626 49.9042 364.548 49.1477 365.34 49.1064C368.75 48.9468 372.171 49.0355 376.231 49.0355C371.054 55.0161 366.267 60.5359 361.427 66.1265C366.705 72.5741 371.911 78.9271 377.52 85.7706C373.353 85.7706 369.76 85.8652 366.173 85.6997C365.405 85.6642 364.512 84.8251 363.957 84.1277C360.009 79.1458 356.138 74.1106 351.83 68.5495V85.6347H342.014V33.085H342.008Z" fill="white"/>
<path d="M417.05 69.6722C418.084 74.5655 420.903 76.7935 424.952 77.7391C429.833 78.8797 433.869 77.6031 436.907 73.3126C439.336 74.9674 441.676 76.563 444.129 78.2355C438.928 84.8308 432.126 87.1711 424.248 86.1664C416.069 85.1204 410.018 80.8299 407.996 72.5444C404.598 58.6387 414.208 48.6039 425.395 48.3911C438.19 48.1429 446.274 56.523 445.181 69.6781H417.05V69.6722ZM435.217 63.1715C434.029 57.9118 430.891 55.4592 425.82 55.6424C421.613 55.7961 418.427 58.7037 417.718 63.1715H435.211H435.217Z" fill="white"/>
<path d="M274.945 85.6352H265.773C265.708 84.205 265.643 82.8812 265.584 81.6697C263.421 83.029 261.477 84.7901 259.195 85.582C250.384 88.6433 241.106 82.3612 240.278 73.0001C240.172 71.8241 240.071 70.6421 240.065 69.4661C240.048 62.7821 240.054 56.0981 240.054 49.1955H249.858C249.858 53.9824 249.823 58.8639 249.876 63.7395C249.905 66.2866 249.793 68.8869 250.26 71.3631C251.075 75.6831 253.67 77.5861 257.913 77.5093C261.731 77.4443 264.443 75.2458 265.141 71.1385C265.578 68.55 265.519 65.8611 265.548 63.2135C265.608 58.598 265.566 53.9824 265.566 49.1719H274.945V85.6234V85.6352Z" fill="white"/>
<path d="M381.77 49.1359H391.414C391.485 50.6842 391.544 52.1262 391.633 54.1001C394.617 49.5377 398.541 47.5934 403.801 48.0307V57.3918C402.696 57.3918 401.555 57.38 400.415 57.3918C395.161 57.4687 391.627 61.0027 391.592 66.3156C391.55 72.6863 391.58 79.063 391.58 85.6051H381.77V49.13V49.1359Z" fill="white"/>
<path d="M284.389 49.1416H293.738V85.6404H284.389V49.1416Z" fill="white"/>
<path d="M294.878 37.8839C294.896 41.3706 292.467 44.0182 289.169 44.1128C285.907 44.2073 283.253 41.5952 283.159 38.1971C283.064 34.8876 285.67 32.0805 288.903 32.0036C292.278 31.9268 294.86 34.468 294.878 37.8839Z" fill="white"/>
<defs>
<clipPath id="clip0_245_70">
<rect width="148.711" height="128.73" fill="white"/>
</clipPath>
</defs>
</svg>
