<?xml version="1.0" encoding="UTF-8"?>
<svg id="Layer_2" data-name="Layer 2" xmlns="http://www.w3.org/2000/svg" viewBox="0 0 226.11 226.43">
  <defs>
    <style>
      .cls-1 {
        fill: #26b081;
      }

      .cls-1, .cls-2, .cls-3, .cls-4, .cls-5, .cls-6, .cls-7 {
        stroke-width: 0px;
      }

      .cls-2 {
        fill: #060606;
      }

      .cls-3 {
        fill: #050505;
      }

      .cls-4 {
        fill: #fff;
      }

      .cls-5 {
        fill: #f4f4f4;
      }

      .cls-6 {
        fill: #acacac;
      }

      .cls-7 {
        fill: #fdfdfd;
      }
    </style>
  </defs>
  <g id="Layer_1-2" data-name="Layer 1">
    <g>
      <path class="cls-4" d="m127.54,127.61c4.02-.63,5.32,1.17,5.29,5.45-.19,24.47-.09,48.95-.15,73.43-.02,9.43-3.78,14.43-12.83,16.23-7.65,1.52-15.28,3.47-23.13,3.7-7.66.23-13.29-4.4-14.46-11.56-.62-3.77,1.01-7.73,3.78-10.88,2.89-3.29,6.99-5.16,11.32-5.81,7.39-1.11,7.49-6.93,7.49-7.96,0-20.14.04-40.29.09-60.43,0-.23.05-.45.11-.68l1.82-1.37c1.36-.02,2.71-.03,4.07-.05.39.03.79.06,1.18.09,4.65,0,9.3,0,13.95-.02l1.49-.14Z"/>
      <path class="cls-4" d="m142.6,123.86c-4.07.04-2.82,6.69-2.05,11.01,4.39,24.68,8.49,49.42,12.75,74.12,1.64,9.52,6.2,13.94,15.43,14.24,7.8.25,15.66.94,23.44-.14,7.59-1.05,12.35-6.67,12.27-14.1-.04-3.91-2.32-7.64-5.59-10.36-3.41-2.83-7.78-4.04-12.16-3.97-7.48.12-8.57-5.74-8.75-6.78-3.46-20.34-6.95-40.68-10.46-61.01-.04-.23-.13-.45-.23-.67l-2.03-1.08c-1.34.21-2.68.42-4.02.63-.38.09-.76.19-1.15.29-4.59.77-9.17,1.55-13.76,2.32-.41.03-9.69-5.49-3.71-4.51Z"/>
      <g>
        <path class="cls-4" d="m116.59,63.82c-9.88,14.72-24.35,26.52-41.08,32.53-21.88,7.68-50.59,5.68-63.24-16.32-3.01-4.94-4.95-10.34-6.68-15.42l4.51-1.81c2.18,5.01,4.37,9.7,7.36,13.8,15.17,21.7,48.04,15.77,66.53,1.41,6.87-5.23,12.85-11.75,17.53-19.01.6-.92,1.26-2.03,1.73-2.93,0,0,13.34,7.74,13.34,7.74h0Z"/>
        <ellipse class="cls-4" cx="10.23" cy="59.64" rx="7.23" ry="2.02" transform="translate(-44.94 34.77) rotate(-56)"/>
        <ellipse class="cls-4" cx="3.81" cy="56.82" rx="3.22" ry="8.06" transform="translate(-15.51 3.25) rotate(-16)"/>
      </g>
      <path class="cls-1" d="m195.97,154.38c-9.12,1.06-18.21.84-27.21-.86-10-1.89-18-5.78-20.39-17.1-1.24-5.87-6.69-6.69-14-3.35-14.69,6.73-28.81,14.78-44.37,19.54-10.09,3.09-20.46,4.54-30.93,5.36-.46.04-.93.02-1.39.02-10.39-.11-11.87-2.65-6.8-11.39C78.3,99.23,105.72,51.86,133.15,4.49c.62-1.07,1.24-2.14,1.91-3.17,1.18-1.81,2.4-1.72,3.51.06,1.63,2.62,3.26,5.23,4.8,7.9,13.49,23.37,26.95,46.75,40.43,70.12,13.45,23.3,26.91,46.6,40.37,69.89q2.92,5.06-2.77,5.08c-8.48.01-16.96,0-25.44,0Z"/>
      <path class="cls-4" d="m178.07,42.61c14.94,20.5,38.27,60.95,21.48,85.24-4.59,5.6-11.96,7.62-18.46,8.3-20.24,1.69-39.89-7.75-54.43-21.14-5.75-5.33-10.78-11.34-15.12-17.76l3.96-2.82c12.91,17.35,32.31,31.26,54.17,33.2,6.94.58,19.33-.09,22.81-6.78,8.51-19.69-11.1-49.02-23-64.41-.87-1.06-2.47-3.11-3.36-4.09,0,0,11.95-9.75,11.95-9.75h0Z"/>
      <ellipse class="cls-4" cx="109.83" cy="92.91" rx="2.02" ry="7.23" transform="translate(-33.7 102.57) rotate(-44.08)"/>
      <ellipse class="cls-4" cx="117.12" cy="91.81" rx="8.06" ry="3.22" transform="translate(-8.02 172.35) rotate(-70.86)"/>
      <g>
        <path class="cls-3" d="m138.23,43.58c-.96,1.72-2.07,3.26-3.38,4.64-3.11,3.27-6.84,5.56-11.1,7.01-4.51,1.54-9.17,2.1-13.9,1.8-5.76-.37-11.28-1.74-16.18-4.87-5.17-3.29-8.79-7.87-10.36-13.89-.49-1.87-.33-3.79-.29-5.7,0-.41.26-.31.49-.3,3.08.11,6.16.19,9.24.32,7.51.31,15.01.57,22.53.47,6.02-.08,12.03.1,18.04.19,4.47.07,8.95.18,13.42.02,7.96-.29,15.93-.23,23.9-.5,6.46-.22,12.92-.48,19.38-.75.45-.02.65.12.82.51,1.62,3.84,1.22,7.49-1.01,10.96-3.08,4.81-7.44,8.02-12.72,10.04-5.04,1.92-10.27,2.6-15.64,2.32-6.09-.32-11.75-1.99-16.82-5.48-2.46-1.7-4.46-3.84-6.08-6.34-.09-.14-.19-.27-.33-.46Zm-26.13,12.19c1.59-.04,3.16-.15,4.73-.38,5.71-.84,10.75-3.09,14.88-7.18,3.51-3.46,5.32-7.63,5.14-12.61-.02-.48-.13-.64-.65-.64-4.17,0-8.34-.01-12.51-.08-.75-.01-1.14.16-1.44.88-2.17,5.32-9.06,6.01-12.8,3.07-1.19-.94-1.91-2.16-2.37-3.56-.08-.26-.13-.5-.53-.49-3.39.08-6.77-.24-10.15-.37-3.1-.12-6.2-.22-9.3-.34-1.09-.04-1.09-.07-1.01.98.03.39.06.77.12,1.16.88,6.01,3.85,10.72,8.74,14.26,5.12,3.71,10.93,5.18,17.15,5.29Zm33.93-21.1c0,.08,0,.15,0,.23-2.1,0-4.21,0-6.31,0-.16,0-.43-.13-.43.21.02,1.69-.17,3.39.4,5.03,1.69,4.83,4.91,8.36,9.32,10.83,5.63,3.16,11.7,4.08,18.07,3.5,4.38-.4,8.48-1.65,12.25-3.92,3.28-1.98,6.06-4.5,7.88-7.92,1.38-2.59,1.73-5.37,1.32-8.26-.07-.48-.22-.74-.81-.69-.88.08-1.78.04-2.67.04-5.38.03-10.75.41-16.13.58-.41.01-.6.14-.72.54-.32,1.06-.76,2.07-1.56,2.89-3.73,3.86-11.44,3.33-13.63-2.46-.19-.5-.44-.62-.94-.61-2.02.03-4.03.01-6.05.01Zm9.9,2.33c0,1.08.81,1.94,1.85,1.95,1.08,0,2.08-.9,2.1-1.91.02-1.1-.89-2.03-2.01-2.04-1.12-.01-1.92.81-1.93,2Zm-42.41.11c.01-1.14-.9-2.06-2.05-2.06-1.03,0-1.89.96-1.88,2.09,0,1,.88,1.88,1.87,1.87,1.14,0,2.05-.85,2.07-1.91Z"/>
        <path class="cls-3" d="m93.35,19.12c-.03-2.65,1.22-4.78,2.75-6.78,2.27-2.97,5.28-5.72,8.87-6.85,1.55-.49,3.11-.93,4.67-1.38,1.7-.49,2.08-1.02,3.19.12,1.69,1.73,2.82,5.46,3.29,7.77.18.91.2.93-.72,1.16-2.85.72-5.73,1.34-8.55,2.15-4.17,1.19-7.99,3.16-11.59,5.56-.27.18-.54.36-.81.53-.72.46-.73.46-.9-.34-.14-.64-.2-1.28-.2-1.93Z"/>
        <path class="cls-3" d="m177.28,25.89c-1.99-.19-3.93-.55-5.9-.69-3.94-.26-7.84-.09-11.74.51-2.18.34-4.33.88-6.54,1.04-.56.04-.87,0-.99-.69-.32-1.75-.31-3.53-.21-5.3.12-2.23-.24-3.05,2.02-3.36,2.6-.36,5.48-.84,8.21-.87,3.94-.05,8.51,1.79,11.72,3.97,1.91,1.29,3.2,2.97,3.42,5.39Z"/>
        <path class="cls-7" d="m112.1,55.77c-6.23-.11-12.03-1.59-17.15-5.29-4.9-3.54-7.87-8.26-8.74-14.26-.06-.39-.09-.77-.12-1.16-.08-1.05-.08-1.03,1.01-.98,3.1.13,6.2.22,9.3.34,3.38.13,6.76.45,10.15.37.4,0,.45.23.53.49.46,1.41,1.18,2.63,2.37,3.56,3.75,2.94,10.63,2.25,12.8-3.07.29-.72.68-.89,1.44-.88,4.17.07,8.34.08,12.51.08.52,0,.64.16.65.64.18,4.98-1.63,9.14-5.14,12.61-4.14,4.09-9.17,6.34-14.88,7.18-1.57.23-3.15.34-4.73.38Z"/>
        <path class="cls-7" d="m146.03,34.67c2.02,0,4.04.02,6.05-.01.5,0,.75.12.94.61,2.19,5.79,9.89,6.32,13.63,2.46.79-.82,1.23-1.83,1.56-2.89.12-.41.31-.53.72-.54,5.38-.17,10.75-.55,16.13-.58.89,0,1.78.04,2.67-.04.59-.05.74.21.81.69.41,2.89.06,5.68-1.32,8.26-1.82,3.42-4.6,5.94-7.88,7.92-3.77,2.28-7.87,3.52-12.25,3.92-6.37.58-12.44-.34-18.07-3.5-4.41-2.47-7.63-6.01-9.32-10.83-.57-1.64-.38-3.34-.4-5.03,0-.34.27-.21.43-.21,2.1,0,4.21,0,6.31,0,0-.08,0-.15,0-.23Z"/>
        <path class="cls-7" d="m155.93,37c0-1.18.81-2.01,1.93-2,1.12.01,2.03.93,2.01,2.04-.02,1.01-1.01,1.91-2.1,1.91-1.04,0-1.85-.87-1.85-1.95Z"/>
        <path class="cls-7" d="m113.52,37.11c-.01,1.06-.93,1.9-2.07,1.91-.99,0-1.86-.87-1.87-1.87,0-1.13.86-2.09,1.88-2.09,1.15,0,2.06.92,2.05,2.06Z"/>
      </g>
      <path class="cls-2" d="m161.82,65.61c.89,4.01-.09,7.72-1.7,11.33-1.12,2.49-2.54,4.78-4.52,6.7-.69.67-1.63.88-2.43,1.36-.32.19-.79-.04-1.21,0-3.59.31-7.18.51-10.79.26-3.86-.26-7.67-.85-11.45-1.63-3.03-.63-6.1-1.09-9.11-1.86-1.91-.49-3.84-.93-5.62-1.81-1.28-.63-2.23-1.58-2.81-2.9-.42-.96-.8-1.95-1.29-2.88-.16-.31-.35-.54-.66-.72-.85-.5-1.62-1.09-2.03-2.05-.09-.21-.19-.37.02-.55.2-.17.41-.08.56.06,2.01,1.85,4.55,2.1,7.08,2.35,3.57.35,7.15.38,10.74.24,2.37-.1,4.73-.38,7.08-.7,2.7-.36,5.38-.87,8.03-1.54,3.03-.77,5.98-1.76,8.9-2.86,2.83-1.07,5.62-2.23,8.52-3.12.32-.1.61-.27.9-.44.24-.14.7-.14.72-.39.02-.22-.33-.46-.5-.71-.28-.4-.61-.77-.79-1.23-.12-.3-.2-.65.15-.86.32-.19.54.02.77.25,1.18,1.22,2.31,2.48,3.59,3.61.51.45,1.05.86,1.63,1.21.41.25.63.68,1,.97.18.14.03.3-.16.36-.66.19-1.28.12-1.88-.24-1-.61-1.88-1.37-2.73-2.2Zm-1.24,3.69c.22-1.49.1-2.98.1-4.56-.53.31-1.01.55-1.46.85-2.07,1.41-4.24,2.64-6.52,3.68-4.48,2.06-9.1,3.67-13.95,4.59-2.75.53-5.51.95-8.3,1.24-3.73.38-7.45.37-11.18.19-.77-.04-1.54-.07-2.3-.18-1.28-.18-2.56-.42-3.84-.62-.19-.03-.47-.1-.58.07-.11.17.06.38.19.54.15.3.31.6.44.91.64,1.56,1.85,2.48,3.4,2.98,1.84.6,3.69,1.12,5.59,1.5,3.61.72,7.21,1.43,10.83,2.12,2.73.52,5.48.92,8.25,1.18,1.69.15,3.37.3,5.06.41,2.16.15,4.32.29,6.48.02.49-.06.94-.19,1.16-.73.22-.54.61-.99.97-1.45,1.97-2.59,3.61-5.36,4.65-8.46.47-1.4,1.01-2.79.99-4.3Z"/>
      <path class="cls-5" d="m160.57,69.3c.02,1.51-.52,2.9-.99,4.3-1.04,3.1-2.68,5.87-4.65,8.46-.35.46-.75.91-.97,1.45-.22.54-.66.67-1.16.73-2.16.27-4.32.12-6.48-.02-1.69-.11-3.38-.26-5.06-.41-2.77-.25-5.52-.66-8.25-1.18-3.61-.69-7.22-1.39-10.83-2.12-1.89-.38-3.75-.9-5.59-1.5-1.56-.5-2.77-1.42-3.4-2.98-.13-.31-.29-.61-.44-.91.1-.21.26-.08.39-.06,3.4.62,6.82.94,10.27,1,4.29.07,8.59.14,12.87-.39,3.72-.47,7.41-1.03,11.05-1.9,2.67-.64,5.3-1.44,7.89-2.35,1.81-.63,3.63-1.25,5.35-2.12Zm-8.11,5.09c-.34.08-.69.18-1.03.23-3.13.51-6.02,1.68-8.78,3.21-.4.22-.68.77-1.15.67-.45-.1-.69-.61-1-.95-.36-.39-.76-.67-1.32-.62-.81.07-1.61.1-2.41.27-.96.2-1.92.27-2.9.04-1.01-.23-1.91.03-2.49.96-.22.35-.39.12-.52-.02-.39-.45-.88-.52-1.43-.5-.75.03-1.5.01-2.24-.18-.39-.11-.83-.13-1.23,0-.19.06-.5.01-.48.36.02.3.17.52.46.57.94.18,1.85.54,2.83.48.62-.04,1.18.02,1.72.47.67.55,1.45.32,1.8-.38.31-.62.7-.81,1.38-.57.87.3,1.75.25,2.62.12.91-.14,1.81-.33,2.72-.44.37-.04.56.07.77.3.43.49.82,1.04,1.42,1.35.41.21.83.32,1.22,0,1.49-1.23,3.24-1.96,5-2.68,1.77-.73,3.49-1.55,5.06-2.7Z"/>
      <path class="cls-6" d="m160.57,69.3c-1.72.87-3.54,1.49-5.35,2.12-2.59.91-5.22,1.71-7.89,2.35-3.64.87-7.34,1.44-11.05,1.9-4.28.54-8.58.47-12.87.39-3.44-.06-6.87-.38-10.27-1-.13-.02-.29-.15-.39.06-.13-.16-.29-.38-.19-.54.11-.17.39-.1.58-.07,1.28.2,2.56.44,3.84.62.76.11,1.53.14,2.3.18,3.73.18,7.45.19,11.18-.19,2.79-.29,5.55-.72,8.3-1.24,4.85-.93,9.47-2.54,13.95-4.59,2.28-1.05,4.45-2.27,6.52-3.68.44-.3.93-.54,1.46-.85,0,1.57.12,3.07-.1,4.56Z"/>
      <path class="cls-2" d="m152.47,74.39c-1.57,1.14-3.29,1.97-5.06,2.7-1.76.73-3.51,1.46-5,2.68-.38.32-.81.2-1.22,0-.61-.31-.99-.86-1.42-1.35-.21-.24-.41-.35-.77-.3-.92.11-1.82.3-2.72.44-.87.13-1.75.18-2.62-.12-.68-.23-1.08-.05-1.38.57-.35.71-1.13.93-1.8.38-.54-.45-1.09-.51-1.72-.47-.98.06-1.89-.3-2.83-.48-.29-.05-.44-.28-.46-.57-.02-.35.29-.29.48-.36.4-.14.83-.11,1.23,0,.74.2,1.49.21,2.24.18.55-.02,1.04.05,1.43.5.13.15.3.37.52.02.59-.93,1.48-1.19,2.49-.96.98.23,1.94.16,2.9-.04.8-.17,1.61-.2,2.41-.27.55-.05.96.23,1.32.62.32.34.56.86,1,.95.47.1.76-.45,1.15-.67,2.76-1.54,5.65-2.7,8.78-3.21.35-.06.69-.15,1.03-.23Z"/>
    </g>
  </g>
</svg>