<?xml version="1.0" encoding="UTF-8"?>
<svg id="Layer_2" data-name="Layer 2" xmlns="http://www.w3.org/2000/svg" viewBox="0 0 180.29 226.92">
  <defs>
    <style>
      .cls-1 {
        fill: #26b081;
      }

      .cls-1, .cls-2, .cls-3, .cls-4, .cls-5, .cls-6, .cls-7, .cls-8, .cls-9, .cls-10, .cls-11 {
        stroke-width: 0px;
      }

      .cls-2 {
        fill: #020202;
      }

      .cls-3 {
        fill: #d2ebf7;
      }

      .cls-4 {
        fill: #fff;
      }

      .cls-5 {
        fill: #282829;
      }

      .cls-6 {
        fill: #111224;
      }

      .cls-7 {
        fill: #1e1e1e;
      }

      .cls-8 {
        fill: #fdfdfd;
      }

      .cls-9 {
        fill: #0b0909;
      }

      .cls-10 {
        fill: #fa969a;
      }

      .cls-11 {
        fill: #111;
      }
    </style>
  </defs>
  <g id="Layer_1-2" data-name="Layer 1">
    <g>
      <path class="cls-2" d="m103.51,85.67c1.41-.77,2.88-.89,4.41-.48.69.18,1.34.49,1.95.86.35.21.6.5.67.91.08.44-.21.73-.65.67-.29-.04-.57-.14-.78-.35-1.58-1.57-3.51-1.85-5.6-1.61Z"/>
      <path class="cls-4" d="m90.24,131.22c1.51-.03,3.06-.6,4.17.83,1.11,1.43,1.21,2.24,1.13,4.47-.43,12.77-.39,19.45,8.08,30.73,8.47,11.29,11.34,24.8,10.61,38.78-.28,5.38-.69,8.09-3.31,11.7-2.63,3.61-5.65,4.24-9.74,5.41-3.46.98-7.7,1.75-11.42,2.44s-7.94,1.21-11.66,1.33-6.92-.75-9.69-3.05-3.91-5.05-4.57-8.53c-.34-1.83.02-3.78.7-5.61s1.83-3.6,3.2-5.08c1.37-1.49,3.32-2.86,5.14-3.62,1.82-.76,4.68-1.43,6.3-1.46,2.78-.05,5.58-1.63,6.75-2.99,1.17-1.36,1.07-2.66.97-3.23-2.05-11.02-10.94-16.54-15.62-26.46s-3.03-22.31-3.69-33.28c0-.12-.01-.25.03-.36s-.07-.19.09-.35.56-.5.83-.67c.27-.17.52-.58.87-.66.6-.13,1.33-.04,1.99-.08.65-.05,1.35-.02,2.01-.04.19,0,.39.03.59.04.2,0,.39.04.59.04,2.35,0,4.67,0,7.03-.02,2.36-.02,4.75-.05,7.13-.11.21,0,.54-.07.75-.08.21,0,.58-.09.73-.1Z"/>
      <path class="cls-4" d="m108.41,124.3c-4.06.06-2.78,6.69-1.99,10.99,4.52,24.59,8.74,49.24,13.14,73.85,1.69,9.48,6.26,13.87,15.47,14.12,7.79.21,15.62.85,23.38-.27,7.56-1.09,12.28-6.72,12.16-14.13-.06-3.9-2.36-7.61-5.64-10.3-3.42-2.81-7.78-3.98-12.15-3.89-7.46.16-8.58-5.68-8.76-6.72-3.56-20.27-7.16-40.53-10.78-60.79-.04-.23-.13-.45-.23-.66l-2.03-1.07c-1.34.22-2.67.44-4,.66-.38.1-.76.19-1.14.29-4.57.8-9.14,1.6-13.71,2.39-.41.03-9.7-5.42-3.73-4.47Z"/>
      <path class="cls-1" d="m147.92,154.38c-9.12,1.06-18.21.84-27.21-.86-10-1.89-18-5.78-20.39-17.1-1.24-5.87-6.69-6.69-14-3.35-14.69,6.73-28.81,14.78-44.37,19.54-10.09,3.09-20.46,4.54-30.93,5.36-.46.04-.93.02-1.39.02-10.39-.11-11.87-2.65-6.8-11.39C30.26,99.23,57.67,51.86,85.1,4.49c.62-1.07,1.24-2.14,1.91-3.17,1.18-1.81,2.4-1.72,3.51.06,1.63,2.62,3.26,5.23,4.8,7.9,13.49,23.37,26.95,46.75,40.43,70.12,13.45,23.3,26.91,46.6,40.37,69.89q2.92,5.06-2.77,5.08c-8.48.01-16.96,0-25.44,0Z"/>
      <path class="cls-4" d="m107.37,58.48c.96-.1,2.05.02,2.96.21,12.36,3.25,23.74,9.26,33.88,17.03,10.3,8.02,19.03,19.35,21.47,32.54,2.02,10.06.52,21.25-6.37,29.22-7.18,8.66-19.2,10.71-28.77,4.88-5.79-3.4-10.01-8.32-13.43-13.46l3.95-2.83c3.5,4.49,7.66,8.49,12.41,10.77,9.94,5.03,19.74-.84,22.48-11.21,2.55-10.07-1.08-20.9-7.5-28.85-8.58-10.47-21.41-17.17-34.22-21.31-1.99-.62-5.16-1.52-6.56-1.65.4.04.81.04,1.21,0,0,0-1.52-15.35-1.52-15.35h0Z"/>
      <ellipse class="cls-4" cx="114.34" cy="124.77" rx="2.02" ry="7.23" transform="translate(-54.49 113.07) rotate(-43.53)"/>
      <ellipse class="cls-4" cx="121.63" cy="123.74" rx="8.06" ry="3.22" transform="translate(-35.85 196.58) rotate(-70.31)"/>
      <polygon class="cls-1" points="118.33 49.44 132.14 71.06 153.71 110.5 105.99 107.26 95.33 48.88 118.33 49.44"/>
      <ellipse class="cls-4" cx="93.31" cy="111.86" rx="7.23" ry="2.02" transform="translate(-46.52 152.7) rotate(-66.45)"/>
      <ellipse class="cls-4" cx="86.48" cy="110.25" rx="3.22" ry="8.06" transform="translate(-40.05 50.05) rotate(-26.44)"/>
      <g>
        <path class="cls-9" d="m77.04,49.88c.14,4.25.85,8.41,2.29,12.42,1.22,3.4,2.89,6.53,5.4,9.17,2.31,2.44,5.04,4.14,8.47,4.49,2.5.25,4.81-.38,6.96-1.63,2.35-1.37,4.18-3.3,5.68-5.54.27-.4.55-.56,1.03-.6,2.59-.22,5.19-.27,7.77-.62.3-.04.43.13.59.31,1.61,1.81,3.48,3.29,5.79,4.09,4.08,1.41,7.71.45,11-2.17,1.41-1.12,2.6-2.46,3.59-3.96.3-.46.65-.62,1.16-.65,1.75-.1,3.5-.23,5.25-.38,2.88-.25,5.75-.55,8.62-.93,3.36-.44,6.7-.98,10.01-1.7,3.28-.71,6.5-1.61,9.57-2.99,3.28-1.47,6.15-3.44,8.06-6.59.93-1.53,1.52-3.19,1.82-4.95.04-.22,0-.48.19-.66v-3.41c-.2-.31-.18-.67-.24-1.01-.79-3.99-3.17-6.73-6.72-8.56-2.64-1.36-5.47-2.12-8.35-2.72-4.3-.89-8.65-1.44-13.03-1.77-5.05-.39-10.1-.66-15.16-.83-.31-.01-.49-.12-.65-.39-1.26-1.99-2.76-3.77-4.67-5.19-4.58-3.39-10.03-3.15-14.5.63-1.89,1.6-3.35,3.55-4.54,5.7-.2.36-.43.46-.81.45-1.5-.07-2.99-.12-4.49-.16-.4-.01-.64-.16-.86-.51-1.2-1.92-2.64-3.65-4.44-5.05-5.01-3.89-10.84-3.76-15.67.35-2.79,2.37-4.68,5.38-6.11,8.7-1.25,2.92-2.05,5.96-2.51,9.11-.27,1.83-.37,3.66-.5,5.49,0,.69,0,1.38,0,2.06Zm99.33,3.63h0c-.3.49-.73.86-1.13,1.26-2.32,2.28-5.18,3.65-8.19,4.73-4.73,1.7-9.65,2.6-14.6,3.31-4.72.68-9.47,1.09-14.22,1.41-.84.06-1.69.1-2.53.15,2.2-.95,4.51-1.57,6.68-2.56.72-.37,1.45-.71,2.15-1.11,2.19-1.25,4.16-2.79,5.6-4.87,2-2.87,2.88-6.09,2.66-9.6-.28-4.35-2.21-7.73-5.89-10.09-1.91-1.22-4.01-2.05-6.17-2.68-3.49-1.02-7.06-1.61-10.66-2.12-4.06-.57-8.15-.81-12.23-1.1-1.21-.09-2.42-.14-3.73-.22.24-.27.43-.46.59-.68.3-.41.66-.54,1.18-.53,3.27.11,6.54.17,9.81.26,5.35.15,10.7.28,16.05.54,5.88.29,11.76.56,17.59,1.45,3.23.5,6.45,1.05,9.56,2.07,2.35.77,4.57,1.81,6.48,3.42.19.16.49.27.49.61.41.35.96.53,1.32.96.9,1.1,1.47,2.35,1.79,3.73.45,1.96.47,3.95.19,5.94-.3,2.13-.97,4.1-2.64,5.6-.04.04-.08.08-.13.11Zm-28.01-14.69c.11-.04.14.04.16.12.28.02.45.24.63.41,1.18,1.09,1.8,2.5,2.19,4.02.64,2.49.62,5,.1,7.5-.39,1.87-1.12,3.6-2.62,4.9-.5.71-1.13,1.3-1.76,1.88-2.48,2.29-5.49,3.63-8.62,4.72-4.34,1.52-8.84,2.41-13.38,3.1-6.93,1.06-13.9,1.65-20.9,1.94-6.81.28-13.62.32-20.43-.01-.18,0-.33-.02-.45-.18-.66-.88-1.34-1.75-1.81-2.74-.76-1.16-1.26-2.43-1.72-3.73-1.48-4.17-2.02-8.47-1.89-12.88.11-3.6.68-7.11,1.9-10.51.94-2.62,2.23-5.06,4.13-7.13.25-.28.52-.39.89-.38,4.4.13,8.81.26,13.21.36,5.13.12,10.25.26,15.38.53,5.81.3,11.62.59,17.37,1.48,3.6.56,7.19,1.16,10.64,2.38,2.33.83,4.53,1.9,6.42,3.54.22.19.5.35.57.68h-.02Zm-42.76-9.1c-.38.1-.7.1-1.02.07-1.82-.14-3.65-.16-5.47-.2-.77-.01-1.39-.16-1.89-.79-.24-.3-.58-.54-.9-.77-2.27-1.7-4.75-2.54-7.6-1.79-1.72.45-3.17,1.38-4.47,2.58-.23.21-.45.44-.8.53.1-.5.12-.54.41-.94,1.13-1.51,2.42-2.88,4-3.93,3.77-2.5,7.69-2.81,11.71-.68,2.56,1.35,4.42,3.47,6.03,5.92Zm8.79-1.41c.04-.35.2-.61.39-.85.88-1.17,1.86-2.26,3.02-3.16,3.07-2.4,6.46-3.24,10.22-1.98,3.12,1.05,5.32,3.27,7.12,5.94.27.4.18.54-.33.51-1.61-.1-3.23-.21-4.85-.17-1.21.03-2.25-.25-3.01-1.25-.02-.03-.05-.05-.08-.07-2.11-1.66-4.43-2.57-7.15-1.98-1.76.39-3.24,1.31-4.55,2.52-.22.21-.44.42-.79.48Zm-28.98,42.03c.52.04.84.34,1.21.54,2.4,1.29,4.85,1.5,7.39.42,1.4-.6,2.58-1.5,3.66-2.54.2-.19.38-.29.67-.3,1.99-.06,3.99-.14,5.98-.22.14,0,.33-.12.43.04.1.16-.05.32-.14.47-.57.91-1.29,1.7-2.07,2.43-2.52,2.37-5.43,3.76-8.98,3.55-2.77-.16-5.07-1.37-7.12-3.15-.39-.33-.81-.64-1.03-1.23Zm30.95-2.81c.36-.24.58-.07.82.07,1.88,1.07,3.86,1.52,6,.96,1.58-.41,2.94-1.23,4.15-2.31.2-.18.39-.39.68-.45.61-.11,1.22-.22,1.83-.32,1.43-.25,2.89-.13,4.32-.25.15-.01.36-.14.46.06.08.17-.07.33-.16.47-.57.87-1.25,1.64-2.02,2.34-2.67,2.46-5.75,3.74-9.43,3.16-2.65-.42-4.79-1.8-6.66-3.73Zm-21.1.94c.48.05.86-.03,1.23.07.33.08.36.24.12.44-.37.31-.74.61-1.13.88-1.84,1.31-3.87,1.77-6.09,1.37-1.75-.31-3.25-1.15-4.55-2.35-.11-.1-.32-.16-.23-.35.06-.13.25-.06.38-.05,1.72.05,3.43-.09,5.15.09.75.08,1.51-.09,2.26-.06,1,.05,1.98.02,2.87-.05Zm-6.54-39.27c-1.07.13-2.03-.14-3.01-.08-.15,0-.36.05-.41-.12-.05-.17.14-.26.25-.35.67-.55,1.45-.92,2.24-1.27.98-.44,2.04-.63,3.1-.61,1.11.03,2.21.25,3.24.71.85.38,1.64.87,2.35,1.47.12.1.34.2.26.4-.07.16-.28.08-.42.08-.98-.03-1.95-.02-2.93-.07-1.58-.08-3.16-.03-4.65-.16Zm32.54-3.29c2.24-.01,3.99.81,5.56,2.09.1.08.26.17.19.32-.07.16-.25.08-.37.08-1.2.02-2.4-.07-3.6-.08-1.75-.02-3.49-.17-5.25-.14-.41,0-.85.13-1.26-.06-.12-.05-.32.05-.36-.11-.05-.17.14-.27.25-.35,1.48-1.11,3.13-1.74,4.84-1.73Zm5.3,40.18c-1.44,2.11-7.03,2.83-8.63,1.16,2.87-.31,5.71-.71,8.63-1.16Z"/>
        <path class="cls-9" d="m79.02,24.75c1.41-1.23,2.3-2.76,3.32-4.19.89-1.23,1.87-2.37,3.05-3.34.46-.38.89-.78,1.38-1.13.61-.43,1.3-.64,1.95-.96,1.71-.84,3.55-1.24,5.38-1.63.73-.15,1.47-.23,2.22-.28.41-.03.79-.23,1.22-.16.23.04.19-.18.2-.33.04-1.34.08-2.68-.06-4.02-.04-.35-.16-.4-.47-.39-2.44.1-4.72.79-6.94,1.77-2.08.92-4.07,1.99-5.86,3.42-1.51,1.21-2.81,2.61-3.78,4.32-.86,1.53-1.38,3.16-1.74,4.86-.14.68-.04,1.33.13,2.06Z"/>
        <path class="cls-9" d="m132.79,18.34c.2-1.16-.24-2.13-.63-3.1-1.24-3.07-3.54-5.05-6.52-6.32-2.26-.97-4.58-1.67-7.08-1.61-1.25.03-1.26.04-1.22,1.29.02.74.07,1.48.07,2.22,0,.36.12.41.46.39,1.88-.11,3.76-.08,5.6.26,2.17.4,4.01,1.46,5.59,3.04.89.89,1.63,1.9,2.51,2.8.36.37.71.74,1.21,1.02Z"/>
        <path class="cls-8" d="m148.37,38.82c-.07-.33-.35-.49-.57-.68-1.88-1.64-4.08-2.71-6.42-3.54-3.45-1.22-7.04-1.82-10.64-2.38-5.76-.89-11.57-1.18-17.37-1.48-5.12-.26-10.25-.41-15.38-.53-4.4-.1-8.81-.23-13.21-.36-.38-.01-.64.1-.89.38-1.9,2.07-3.19,4.51-4.13,7.13-1.22,3.39-1.79,6.91-1.9,10.51-.13,4.41.41,8.71,1.89,12.88.46,1.29.96,2.57,1.72,3.73.15-.08.3-.13.49-.1,2.17.37,4.37.59,6.56.79,2,.18,4,.25,6,.32,2.54.1,5.09-.09,7.63-.1.05,0,.1,0,.15,0,1.95-.13,3.89-.28,5.84-.4,1.3-.08,2.61,0,3.91-.09,2.17-.16,4.33-.31,6.5-.53,1.82-.18,3.63-.46,5.43-.77,2.53-.43,5.04-.96,7.52-1.62,2.43-.65,4.83-1.4,7.19-2.29,2.37-.89,4.7-1.87,6.95-3.06.21-.11.38-.23.38-.49-.06-.03-.12-.05-.18-.08-.12.02-.22.02-.23-.14-1.04-.71-1.64-1.74-2.1-2.87-.98-2.41-1.12-4.91-.8-7.45.23-1.86.67-3.67,1.83-5.19.93-1.21,1.99-2.24,3.74-1.57.03.01.07-.01.1-.02Z"/>
        <path class="cls-8" d="m175.84,37.17c0-.34-.3-.44-.49-.61-1.91-1.6-4.13-2.64-6.48-3.42-3.11-1.03-6.33-1.57-9.56-2.07-5.83-.9-11.71-1.17-17.59-1.45-5.35-.26-10.7-.39-16.05-.54-3.27-.09-6.54-.15-9.81-.26-.52-.02-.88.12-1.18.53-.16.22-.35.41-.59.68,1.31.08,2.52.13,3.73.22,4.08.29,8.17.53,12.23,1.1,3.59.51,7.17,1.1,10.66,2.12,2.16.63,4.26,1.46,6.17,2.68,3.69,2.36,5.62,5.74,5.89,10.09.23,3.51-.66,6.73-2.66,9.6-1.45,2.08-3.41,3.62-5.6,4.87-.7.4-1.43.74-2.15,1.11.06.21.24.16.38.16.48,0,.95-.03,1.43-.09,1.64-.2,3.3-.31,4.94-.55,2.06-.3,4.12-.61,6.16-1.05,2.61-.56,5.2-1.19,7.75-2.01,1.41-.46,2.81-.95,4.21-1.45,2.11-.76,4.14-1.7,6.16-2.66.2-.09.3-.22.28-.44-.94-.55-1.59-1.36-2.02-2.35-1.64-3.77-1.55-7.59.03-11.32.73-1.72,1.85-3.25,4.15-2.88Z"/>
        <path class="cls-3" d="m146.01,56.13c0,.26-.16.38-.38.49-2.24,1.18-4.57,2.17-6.95,3.06-2.36.88-4.75,1.64-7.19,2.29-2.48.66-4.99,1.19-7.52,1.62-1.8.31-3.61.59-5.43.77-2.16.21-4.33.37-6.5.53-1.31.1-2.61.01-3.91.09-1.95.11-3.89.26-5.84.4-.05,0-.1,0-.15,0-2.54,0-5.09.19-7.63.1-2-.08-4.01-.14-6-.32-2.19-.2-4.39-.41-6.56-.79-.19-.03-.34.02-.49.1.48,1,1.15,1.87,1.81,2.74.12.16.27.17.45.18,6.81.33,13.63.29,20.43.01,7-.29,13.97-.88,20.9-1.94,4.54-.69,9.04-1.58,13.38-3.1,3.13-1.09,6.14-2.44,8.62-4.72.63-.58,1.26-1.17,1.76-1.88-.19-.04-.33.09-.46.18-.75.48-1.53.54-2.35.19Z"/>
        <path class="cls-11" d="m146.01,56.13c.82.35,1.6.29,2.35-.19.14-.09.27-.22.46-.18,1.5-1.3,2.22-3.03,2.62-4.9.53-2.5.54-5.02-.1-7.5-.39-1.51-1.01-2.92-2.19-4.02-.18-.17-.35-.38-.63-.41-.06-.03-.16-.01-.16-.12h.02s-.07.04-.1.03c-1.75-.67-2.81.36-3.74,1.57-1.16,1.52-1.6,3.33-1.83,5.19-.32,2.54-.18,5.04.8,7.45.46,1.13,1.06,2.16,2.1,2.87.08.05.15.09.23.14.06.03.12.05.18.08Zm-2-10.76c-.02-.6.12-1.21.49-1.76.58-.86,1.5-.88,2.13-.06.75.98.76,2.69,0,3.68-.63.82-1.55.8-2.13-.05-.36-.53-.5-1.12-.49-1.81Z"/>
        <path class="cls-11" d="m175.84,37.17c-2.3-.37-3.43,1.17-4.15,2.88-1.58,3.73-1.67,7.54-.03,11.32.43.98,1.08,1.79,2.02,2.35.86.4,1.68.37,2.47-.18.06-.04.14-.11.22-.03,0,0,0,0,0,0-.03-.12.06-.11.13-.11,1.67-1.49,2.34-3.47,2.64-5.6.28-1.98.26-3.97-.19-5.94-.32-1.37-.89-2.63-1.79-3.73-.36-.44-.9-.61-1.32-.96Zm-.81,6.35c-.01.63-.13,1.23-.49,1.76-.61.89-1.5.91-2.15.05-.72-.95-.7-2.74.04-3.68.61-.77,1.48-.77,2.07.03.4.54.52,1.18.54,1.85Z"/>
        <path class="cls-3" d="m176.37,53.5c-.09-.08-.16-.01-.22.03-.79.55-1.62.57-2.47.18.02.22-.08.35-.28.44-2.02.96-4.05,1.91-6.16,2.66-1.4.5-2.8,1-4.21,1.45-2.54.82-5.14,1.45-7.75,2.01-2.03.44-4.1.75-6.16,1.05-1.64.24-3.3.35-4.94.55-.48.06-.95.09-1.43.09-.15,0-.32.05-.38-.16-2.17.98-4.47,1.61-6.68,2.56.84-.05,1.69-.09,2.53-.15,4.76-.32,9.5-.73,14.22-1.41,4.96-.71,9.87-1.61,14.6-3.31,3.01-1.08,5.87-2.45,8.19-4.73.4-.4.83-.77,1.13-1.26Z"/>
        <path class="cls-8" d="m105.59,29.71c-1.61-2.45-3.47-4.56-6.03-5.92-4.02-2.13-7.94-1.82-11.71.68-1.58,1.05-2.87,2.41-4,3.93-.3.4-.31.44-.41.94.36-.09.58-.32.8-.53,1.3-1.19,2.75-2.13,4.47-2.58,2.85-.75,5.33.09,7.6,1.79.32.24.66.47.9.77.5.62,1.12.77,1.89.79,1.82.03,3.65.05,5.47.2.32.02.64.03,1.02-.07Z"/>
        <path class="cls-8" d="m114.39,28.3c.35-.06.56-.28.79-.48,1.31-1.21,2.79-2.13,4.55-2.52,2.72-.6,5.04.32,7.15,1.98.03.02.06.04.08.07.76.99,1.79,1.27,3.01,1.25,1.62-.04,3.23.07,4.85.17.5.03.6-.11.33-.51-1.8-2.66-4-4.89-7.12-5.94-3.75-1.27-7.15-.42-10.22,1.98-1.16.91-2.14,1.99-3.02,3.16-.18.24-.35.5-.39.85Z"/>
        <path class="cls-8" d="m85.41,70.33c.21.59.64.89,1.03,1.23,2.05,1.78,4.35,2.98,7.12,3.15,3.55.21,6.46-1.17,8.98-3.55.78-.73,1.5-1.52,2.07-2.43.09-.14.23-.3.14-.47-.09-.16-.28-.04-.43-.04-1.99.07-3.99.16-5.98.22-.28,0-.47.11-.67.3-1.08,1.05-2.26,1.95-3.66,2.54-2.53,1.08-4.99.88-7.39-.42-.37-.2-.69-.5-1.21-.54Z"/>
        <path class="cls-8" d="m116.36,67.52c1.87,1.93,4.01,3.31,6.66,3.73,3.68.58,6.76-.7,9.43-3.16.76-.7,1.45-1.47,2.02-2.34.09-.14.24-.3.16-.47-.09-.2-.31-.08-.46-.06-1.44.12-2.89,0-4.32.25-.61.11-1.22.21-1.83.32-.29.05-.48.26-.68.45-1.21,1.08-2.57,1.89-4.15,2.31-2.14.56-4.12.11-6-.96-.24-.14-.46-.31-.82-.07Z"/>
        <path class="cls-6" d="m95.25,68.46c-.89.07-1.87.1-2.87.05-.74-.04-1.51.13-2.26.06-1.72-.17-3.43-.04-5.15-.09-.13,0-.32-.07-.38.05-.09.18.12.25.23.35,1.3,1.2,2.8,2.03,4.55,2.35,2.22.4,4.25-.06,6.09-1.37.39-.28.77-.57,1.13-.88.24-.2.21-.36-.12-.44-.38-.1-.75-.01-1.23-.07Z"/>
        <path class="cls-6" d="m88.72,29.19c1.49.13,3.08.08,4.65.16.98.05,1.96.04,2.93.07.14,0,.36.09.42-.08.08-.19-.14-.29-.26-.4-.71-.61-1.5-1.09-2.35-1.47-1.03-.46-2.13-.69-3.24-.71-1.06-.02-2.12.18-3.1.61-.78.35-1.57.71-2.24,1.27-.11.09-.31.19-.25.35.06.17.26.13.41.12.98-.06,1.95.2,3.01.08Z"/>
        <path class="cls-6" d="m121.25,25.9c-1.7,0-3.35.63-4.84,1.73-.12.09-.3.18-.25.35.04.17.24.06.36.11.41.19.85.07,1.26.06,1.75-.03,3.5.13,5.25.14,1.2.01,2.4.1,3.6.08.13,0,.3.08.37-.08.07-.16-.1-.25-.19-.32-1.57-1.28-3.32-2.1-5.56-2.09Z"/>
        <path class="cls-6" d="m126.55,66.08c-2.92.45-5.76.85-8.63,1.16,1.6,1.66,7.19.95,8.63-1.16Z"/>
        <path class="cls-3" d="m176.49,53.39c-.07,0-.16,0-.13.11.04-.04.08-.08.13-.11Z"/>
        <path class="cls-8" d="m148.35,38.81c0,.1.1.09.16.12-.03-.08-.05-.16-.16-.12Z"/>
        <path class="cls-3" d="m145.83,56.05c-.08-.05-.15-.09-.23-.14.01.15.11.16.23.14Z"/>
        <path class="cls-8" d="m144.01,45.36c0,.69.13,1.28.49,1.81.58.85,1.51.87,2.13.05.75-.98.75-2.7,0-3.68-.63-.82-1.55-.8-2.13.06-.37.54-.51,1.16-.49,1.76Z"/>
        <path class="cls-8" d="m175.03,43.52c-.02-.66-.13-1.3-.54-1.85-.59-.79-1.46-.8-2.07-.03-.74.94-.76,2.73-.04,3.68.65.86,1.54.84,2.15-.05.36-.53.48-1.13.49-1.76Z"/>
      </g>
      <g>
        <path class="cls-7" d="m129.22,98.99c.18-7.8-2.53-14.17-9.2-18.57-1.79-1.18-3.83-1.26-5.84-1.05-2.47.26-4.27,2.3-4.76,5.33-.8,4.95-.39,9.91.2,14.84.19,1.57.81,3.09,1.96,4.29.6-.31.18-1.23.79-1.46,1.74-.68,3.29-2.08,5.41-1.3,1.03.38,2.06.33,2.88-.64.68-.79,1.63-.92,2.62-.74.09,0,.17-.02.25-.05.05-.85.63-.94,1.32-.99,1.48-.09,2.92.14,4.37.32Z"/>
        <path class="cls-5" d="m129.22,98.99c-1.45-.18-2.9-.41-4.37-.32-.69.04-1.27.13-1.32.99,1.13.06,2.2-.56,3.33-.3.67.15,1.56.14,1.34,1.33-.51,2.7-2.96,5.51-5.65,5.93-3.24.5-6.36.16-9.13-1.97-1.15-.88-.67-1.4.1-1.92,1.46-.97,3.1-1.11,4.77-.72.71.16,1.32.26,1.97-.22.98-.73,2.01-1.39,3.02-2.09-.99-.17-1.94-.05-2.62.74-.83.96-1.85,1.02-2.88.64-2.12-.78-3.67.62-5.41,1.3-.61.24-.19,1.15-.79,1.46.66.74,1.32,1.48,1.99,2.22.53.32,1.05.64,1.58.96.76.34,1.52.67,2.28,1.01.53.11,1.06.22,1.6.32l3.84-.1c1.69-.54,3.15-1.45,4.32-2.81.17-.23.33-.45.5-.68.68-1.45,1.15-2.97,1.56-4.51,0-.42-.01-.84-.02-1.27Z"/>
        <path class="cls-10" d="m123.28,99.7c-1.01.69-2.04,1.35-3.02,2.09-.64.48-1.26.38-1.97.22-1.67-.38-3.31-.25-4.77.72-.78.52-1.25,1.04-.1,1.92,2.77,2.13,5.89,2.47,9.13,1.97,2.69-.42,5.14-3.23,5.65-5.93.22-1.19-.67-1.18-1.34-1.33-1.13-.26-2.2.36-3.33.3-.08.03-.16.05-.25.05Z"/>
      </g>
      <path class="cls-4" d="m73.79,78.32c-5.84,1.9-11.88,4.14-17.61,6.47-6.3,2.71-12.49,5.15-18.05,8.84-10.95,8.92-14.94,21.25-5.14,32.84,7.39,10.8,30.46,2.85,40.42-1.35,4.25-1.85,8.46-3.93,12.24-6.56.96-.64,2.25-1.71,2.81-2.48,0,0,4.3,2.27,4.3,2.27-1.14,2.02-2.41,2.98-3.98,4.31-3.97,3.15-8.34,5.65-12.8,7.93-13.74,6.7-37.86,16.01-49.8,1.77-5.03-5.43-8.84-12.67-8.94-20.4-.21-10.68,5.73-20.29,13.33-27.24,5.99-4.91,13.22-8.71,19.86-12.29,5.96-3.09,11.78-5.89,17.98-8.57,0,0,5.38,14.45,5.38,14.45h0Z"/>
    </g>
  </g>
</svg>