<?xml version="1.0" encoding="UTF-8"?>
<svg id="Layer_2" data-name="Layer 2" xmlns="http://www.w3.org/2000/svg" viewBox="0 0 208.94 227.43">
  <defs>
    <style>
      .cls-1 {
        fill: #26b081;
      }

      .cls-1, .cls-2, .cls-3, .cls-4, .cls-5, .cls-6, .cls-7, .cls-8, .cls-9, .cls-10, .cls-11, .cls-12, .cls-13, .cls-14, .cls-15 {
        stroke-width: 0px;
      }

      .cls-2 {
        fill: #b02851;
      }

      .cls-3 {
        fill: #408d09;
      }

      .cls-4 {
        fill: #1f1c1d;
      }

      .cls-5 {
        fill: #fff;
      }

      .cls-6 {
        fill: #202020;
      }

      .cls-7 {
        fill: #82cd4e;
      }

      .cls-8 {
        fill: #f4f4f4;
      }

      .cls-9 {
        fill: #ea4a7b;
      }

      .cls-10 {
        fill: #fafbfb;
      }

      .cls-11 {
        fill: #f88f06;
      }

      .cls-12 {
        fill: #c8fda1;
      }

      .cls-13 {
        fill: #242424;
      }

      .cls-14 {
        fill: #0a0c08;
      }

      .cls-15 {
        fill: #111;
      }
    </style>
  </defs>
  <g id="Layer_1-2" data-name="Layer 1">
    <g>
      <g>
        <path class="cls-5" d="m143.61,56.06c1.61-.16,3.19.2,4.63.82,5.64,2.62,10.5,6.41,15.33,10.15,4.8,3.84,9.33,7.93,13.63,12.26,10.68,10.92,20.29,23.21,26.72,37.14,5.92,14.38,5.68,30.28,3.97,45.35-.71,5.93-1.8,11.76-3,17.56l-4.79-.85c.74-5.74,1.37-11.49,1.62-17.23.5-13.83-.19-28.38-6.41-40.84-11.54-19.92-30.42-37.39-50.59-48.35-.75-.36-1.47-.74-2.15-.93.05.03.22.08.28.1.74.19,1.5.24,2.28.16l-1.52-15.35h0Z"/>
        <ellipse class="cls-5" cx="196.39" cy="176.58" rx="7.23" ry="2.02" transform="translate(-5.38 6.17) rotate(-1.78)"/>
        <ellipse class="cls-5" cx="200.85" cy="182.44" rx="8.06" ry="3.22" transform="translate(-49.38 287.36) rotate(-65)"/>
      </g>
      <path class="cls-5" d="m108.69,128.61c4.02-.63,5.32,1.17,5.29,5.45-.19,24.47-.09,48.95-.15,73.43-.02,9.43-3.78,14.43-12.83,16.23-7.65,1.52-15.28,3.47-23.13,3.7-7.66.23-13.29-4.4-14.46-11.56-.62-3.77,1.01-7.73,3.78-10.88s6.99-5.16,11.32-5.81c7.39-1.11,7.49-6.93,7.49-7.96,0-20.14.04-40.29.09-60.43,0-.23.05-.45.11-.68l1.82-1.37c1.36-.02,2.71-.03,4.07-.05.39.03.79.06,1.18.09,4.65,0,9.3,0,13.95-.02l1.49-.14Z"/>
      <path class="cls-5" d="m123.75,124.86c-4.07.04-2.82,6.69-2.05,11.01,4.39,24.68,8.49,49.42,12.75,74.12,1.64,9.52,6.2,13.94,15.43,14.24,7.8.25,15.66.94,23.44-.14,7.59-1.05,12.35-6.67,12.27-14.1-.04-3.91-2.32-7.64-5.59-10.36-3.41-2.83-7.78-4.04-12.16-3.97-7.48.12-8.57-5.74-8.75-6.78-3.46-20.34-6.95-40.68-10.46-61.01-.04-.23-.13-.45-.23-.67l-2.03-1.08c-1.34.21-2.68.42-4.02.63-.38.09-.76.19-1.15.29-4.59.77-9.17,1.55-13.76,2.32-.41.03-9.69-5.49-3.71-4.51Z"/>
      <path class="cls-5" d="m97.74,64.82c-.71,1.19-1.76,2.25-2.72,3.19-14.04,13.08-30.77,23.32-49.05,29.27-9.9,2.96-26.58,6.62-36.18,1.93C.14,94.66-1.68,82.66,1.32,73.48c4.23-14.63,19.29-26.65,32.99-14.73,0,0-3.06,3.78-3.06,3.78-4.36-3.38-9.8-4.19-14.28-.85-8.74,5.64-14.91,28.51-.05,29.98,23.94.14,49.29-15.95,65.68-32.67.79-.84,1.56-1.63,2.22-2.51,0,0,.05-.07-.05.06-.14.17-.26.35-.36.54l13.34,7.74h0Z"/>
      <path class="cls-1" d="m177.12,155.38c-9.12,1.06-18.21.84-27.21-.86-10-1.89-18-5.78-20.39-17.1-1.24-5.87-6.69-6.69-14-3.35-14.69,6.73-28.81,14.78-44.37,19.54-10.09,3.09-20.46,4.54-30.93,5.36-.46.04-.93.02-1.39.02-10.39-.11-11.87-2.65-6.8-11.39C59.45,100.23,86.87,52.85,114.3,5.49c.62-1.07,1.24-2.14,1.91-3.17,1.18-1.81,2.4-1.72,3.51.06,1.63,2.62,3.26,5.23,4.8,7.9,13.49,23.37,26.95,46.75,40.43,70.12,13.45,23.3,26.91,46.6,40.37,69.89q2.92,5.06-2.77,5.08c-8.48.01-16.96,0-25.44,0Z"/>
      <g>
        <path class="cls-4" d="m138.15,73.25c-.56,4.6-1.68,9.04-3.73,13.21-1.31,2.66-3.35,4.53-6.15,5.57-3.19,1.19-6.5,1.73-9.86,2.08-.14.02-.31-.17-.47-.27,2.32-1.6,4.99-2.2,7.71-2.62.36-.06.9.14,1-.37.1-.57-.46-.67-.86-.82-.78-.31-1.54-.64-2.33-.91-7.31-2.5-14.55-3.23-21.58.93-.26.15-.51.3-.83.18.38-3.43-.76-6.37-2.87-9.01-1.42-1.78-3.09-3.29-4.85-4.72-.35-.28-.91-.42-.96-1.18,1.55-.04,3,.44,4.44.74,1.66.34,3.3.66,4.99.84,5.58.6,11.15,1.21,16.76.63,6.75-.7,13.03-2.74,18.59-6.72.65.03,1.17.36.71.98-.54.72.05,1.01.28,1.47Zm-33.58,5.18c.48-.72,1.29-.02,2.01-.54-.87-.07-1.58-.16-2.29-.17-.52,0-1.2-.4-1.44.48-1.66-.04-3.31-.27-5.25-.68,1.52,2.5,3.61,3.63,5.95,4.26,5.28,1.41,10.66,1.61,16.08,1.07,3.94-.39,7.76-1.22,11.16-3.38,2.3-1.46,3.98-3.42,4.79-6.32-9.78,5.92-20.21,6.75-31.01,5.28Zm3.99-.24c-.08-.05-.15-.12-.22-.13-.07,0-.15.06-.22.1.07.04.14.12.21.13.07,0,.15-.06.23-.1Z"/>
        <path class="cls-2" d="m101.04,90.23c.32.12.57-.03.83-.18,7.03-4.16,14.27-3.43,21.58-.93.79.27,1.56.6,2.33.91.4.16.96.26.86.82-.09.52-.63.32-1,.37-2.72.42-5.38,1.02-7.71,2.62-2.3,1.07-4.14,2.75-5.91,4.5-1.78,1.76-3.45,3.63-5.28,5.32-1.86,1.71-3.57,1.79-5.78.51-5.05-2.91-5.65-8.44-1.38-12.38.52-.48,1.33-.71,1.46-1.56Zm21.25-.64c-1.14-.28-2.13-.84-3.26-.97-4.64-.52-9,.41-12.89,2.95-2.44,1.59-4.59,3.58-4.88,6.79-.21,2.39,1.52,3.63,3.79,2.76,1.52-.59,2.61-1.73,3.61-2.92,3.43-4.07,7.33-7.34,12.88-7.96.27-.03.59-.08.75-.64Zm-13.24-1.19c-1.93-.04-3.6.69-5.14,1.55-2.06,1.15-4.3,2.27-4.91,4.92-.13.55-.52,1.25.11,1.58.54.28,1.1-.19,1.48-.68,1.43-1.83,3.05-3.46,4.91-4.84,1.17-.86,2.36-1.69,3.54-2.54Z"/>
        <path class="cls-6" d="m138.15,73.25c-.23-.46-.83-.75-.28-1.47.46-.62-.06-.94-.71-.98,1.04-1.11,1.03-1.22-.45-1.49-.41-.08-.71-.47-1.15-.41,0,.03,0-.01,0-.05.04.03.08.08.11.07,1.93-.49,4.82.89,5.44,2.62.13.35.34.8-.1,1.04-.38.21-.64-.21-.84-.44-.46-.5-.84-1.07-1.33-1.7-.59.91-.37,1.94-.7,2.81Z"/>
        <path class="cls-10" d="m104.56,78.43c10.8,1.47,21.23.64,31.01-5.28-.81,2.91-2.49,4.87-4.79,6.32-3.4,2.16-7.22,2.99-11.16,3.38-5.42.54-10.8.34-16.08-1.07-2.34-.63-4.43-1.76-5.95-4.26,1.94.41,3.59.64,5.25.68.19.02.39.05.58.07.2.03.4.06.61.08l.53.07Z"/>
        <path class="cls-6" d="m104.56,78.43c-.18-.02-.35-.05-.53-.07-.15-.36-.35-.42-.61-.08-.19-.02-.39-.05-.58-.07.23-.88.92-.49,1.44-.48.71.01,1.42.1,2.29.17-.72.51-1.53-.18-2.01.54Z"/>
        <path class="cls-6" d="m108.56,78.19c-.08.04-.16.11-.23.1-.07,0-.14-.08-.21-.13.07-.04.15-.1.22-.1.07,0,.14.08.22.13Z"/>
        <path class="cls-9" d="m122.29,89.59c-.15.56-.48.61-.75.64-5.55.63-9.45,3.89-12.88,7.96-1,1.19-2.1,2.33-3.61,2.92-2.26.88-4-.36-3.79-2.76.28-3.21,2.44-5.2,4.88-6.79,3.89-2.54,8.25-3.47,12.89-2.95,1.14.13,2.13.68,3.26.97Z"/>
        <path class="cls-9" d="m109.05,88.4c-1.18.84-2.37,1.67-3.54,2.54-1.87,1.38-3.49,3.01-4.91,4.84-.38.49-.94.96-1.48.68-.64-.33-.24-1.03-.11-1.58.61-2.66,2.85-3.77,4.91-4.92,1.53-.86,3.21-1.59,5.14-1.55Z"/>
        <path class="cls-4" d="m103.43,78.28c.25-.34.45-.28.61.08-.2-.03-.4-.06-.61-.08Z"/>
      </g>
      <ellipse class="cls-5" cx="101.64" cy="40.95" rx="8.67" ry="12.35"/>
      <ellipse class="cls-5" cx="135.58" cy="39.91" rx="8.67" ry="12.35"/>
      <path class="cls-13" d="m117.78,49.26c-1.79,4.75-4.14,8.67-7.78,11.75-6.94,5.87-15.84,5.39-21.97-1.28-2.52-2.74-4-6.02-4.79-9.6-2.22-9.97-.39-19.11,6.43-26.82,8.5-9.61,20.3-8.26,26.81,2.81.21.36.42.72.77,1.31.96-1.52,1.74-2.9,2.64-4.19,4.96-7.07,13.17-8.84,20.46-4.16,8.68,5.58,11.65,14.12,11.77,23.97.04,3.22-.49,6.34-1.65,9.37-4.85,12.6-18.98,14.97-27.75,4.66-1.91-2.25-3.27-4.83-4.93-7.81Zm0-9.96c-.04-7-1.64-12.12-4.69-15.96-4.31-5.43-11.09-6.72-17.12-3.24-11.55,6.65-15.54,26.64-7.5,37.6,4.91,6.69,12.29,7.98,18.99,3.04,7.5-5.52,9.95-13.51,10.31-21.44Zm32.63,3.32c0-7.08-2.3-13.71-6.57-18.89-7.87-9.55-20.12-7.62-24.61,3.9-.46,1.18-1.21,2.35-.83,3.71,1.21,4.32,1.23,8.68.46,13.07-.11.65-.08,1.4.12,2.03,1.65,5.34,4.5,9.87,9.13,13.13,6.19,4.36,13.47,3.2,18.06-2.85,3.16-4.16,4.27-8.96,4.25-14.09Z"/>
      <path class="cls-15" d="m89.41,15.47c-.53-7.48,6.08-14.93,13.64-15.46,1.11-.08,1.56.23,1.74,1.28.33,1.95.55,3.96,1.16,5.82.65,1.98-.07,2.63-1.89,2.8-5.1.48-9.67,2.35-13.74,5.44-.32.24-.59.3-.92.11Z"/>
      <path class="cls-15" d="m144.37,15.64c-4.03-3.35-8.45-4.24-13.01-4.7-1.31-.13-1.88-.67-1.18-1.99.16-.3.27-.63.39-.95q2.08-5.99,7.72-2.81c4.29,2.42,5.96,5.14,6.08,10.44Z"/>
      <path class="cls-8" d="m117.79,39.3c-.36,7.93-2.82,15.92-10.31,21.44-6.7,4.94-14.09,3.65-18.99-3.04-8.04-10.96-4.05-30.95,7.5-37.6,6.03-3.47,12.81-2.19,17.12,3.24,3.05,3.84,4.65,8.96,4.69,15.96Zm-20.85,8.26c.72-1.02,2.84-.57,1.86-2.62-.81-1.71-1.82-1.35-3.13-.91-2.05.67-4.13,1.24-6.21,1.8-1.16.31-2.06.49-1.52,2.2.5,1.57,1.21,1.66,2.42,1.07,1.07-.52,1.91-.16,2.86.44,1.15.73,2.39,1.46,3.69,1.78,1.74.43,2.48,1.17,2.09,3-.11.51-.59,1.52.6,1.55.71.02,1.47-.31,1.36-1.2-.25-2.11.9-2.25,2.6-2.29,3.29-.07,6.41-2.97,6.78-6.02.31-2.59-1.57-4.92-4.96-6.13-2.84-1.01-3.47-2.44-2.51-5.29.43-1.27,1.21-.79,1.8-.45.51.3,2.13.16,1.3,1.25-1.4,1.83.59,2.17,1.13,2.92.82,1.13,1.42-.32,2.01-.7,1.23-.79,2.39-1.71,3.45-2.72.49-.46,2.05-.68,1.07-1.75-.66-.72-1.28-2.02-2.93-1.31-2.51,1.08-4.42-1.12-6.61-1.75-1.35-.39-.29-2.13-.43-3.24-.07-.56.6-1.51-.67-1.5-.7,0-1.59.13-1.47,1.05.43,3.37-1.68,2.81-3.8,2.74-4.04-.14-5.88,1.44-6.18,4.96-.29,3.34.79,4.92,4.66,6.87q3.97,2,3.28,6.45c-.02.16-.14.3-.22.46-.83.14-1.45-.43-2.33-.68Z"/>
      <path class="cls-8" d="m150.41,42.62c.02,5.13-1.09,9.93-4.25,14.09-4.58,6.05-11.87,7.21-18.06,2.85-4.62-3.26-7.48-7.79-9.13-13.13-.2-.63-.23-1.38-.12-2.03.77-4.4.75-8.75-.46-13.07-.38-1.36.37-2.53.83-3.71,4.49-11.51,16.74-13.44,24.61-3.9,4.27,5.18,6.57,11.81,6.57,18.89Zm-19.05-13.98c-1.04.85-2.4.76-3.58,1.23-3.66,1.45-4.76,3.91-3.54,7.61,1.26,3.84,4.55,3.95,7.59,4.03,2.55.06,3.5.97,4.08,3.41.56,2.38-.02,2.64-2.07,1.96.19-.95,2.4-1.21.75-2.85-1.36-1.35-2.18-.7-3.24.11-1.71,1.32-3.38,2.68-5.17,3.89-1.2.81-1.68,1.48-.64,2.84,1,1.3,1.72.97,2.65.04.61-.61,1.25-1.15,2.28-.77,1.57.59,3.25.45,4.87.34,1.54-.11,2.42.25,2.63,1.95.07.52-.1,1.82,1.14,1.56,1.13-.24,1.2-1.21.79-2.05-.75-1.53-.04-1.99,1.31-2.52,3.44-1.35,5.26-4.66,4.64-8-.52-2.79-2.71-4.1-6.83-4.1-2.91,0-4.09-1.23-4.24-4.18-.06-1.22.75-1.02,1.32-.92.65.12,2.04-.64,1.84.65-.28,1.88,1.21,1.88,2.08,2.33,1.19.61,1.27-.81,1.68-1.42.88-1.28,1.66-2.62,2.41-3.98.28-.51,1.24-1.14.34-1.69-.86-.52-1.86-1.39-3.02-.53-2.62,1.95-5.39,1.13-8.15.47-.51-1.23.29-3.78-1.67-3.43-2.42.43-.37,2.45-.37,3.77,0,.08.06.16.1.24Z"/>
      <path class="cls-15" d="m96.94,47.56c.89.25,1.5.82,2.33.68.08-.16.19-.31.22-.46q.7-4.46-3.28-6.45c-3.88-1.95-4.95-3.53-4.66-6.87.3-3.52,2.14-5.1,6.18-4.96,2.11.07,4.23.64,3.8-2.74-.12-.92.78-1.05,1.47-1.05,1.27-.01.6.93.67,1.5.14,1.12-.92,2.86.43,3.24,2.19.63,4.09,2.83,6.61,1.75,1.65-.71,2.26.59,2.93,1.31.98,1.07-.58,1.29-1.07,1.75-1.06,1.01-2.22,1.92-3.45,2.72-.59.38-1.19,1.83-2.01.7-.55-.75-2.53-1.09-1.13-2.92.83-1.09-.79-.95-1.3-1.25-.58-.34-1.37-.82-1.8.45-.96,2.85-.33,4.28,2.51,5.29,3.39,1.2,5.27,3.53,4.96,6.13-.37,3.05-3.49,5.95-6.78,6.02-1.7.03-2.85.18-2.6,2.29.11.89-.65,1.22-1.36,1.2-1.19-.04-.71-1.05-.6-1.55.39-1.82-.35-2.57-2.09-3-1.3-.32-2.54-1.05-3.69-1.78-.94-.6-1.79-.97-2.86-.44-1.21.59-1.92.5-2.42-1.07-.55-1.71.35-1.89,1.52-2.2,2.08-.56,4.16-1.13,6.21-1.8,1.31-.43,2.32-.79,3.13.91.98,2.05-1.14,1.6-1.86,2.62Zm3.39-9.22c.15-1.1.32-2.08.4-3.07.08-.95.56-2.16-1.23-2.06-1.43.08-2.29.77-2.27,2.18.03,1.88,1.39,2.52,3.1,2.95Zm1.36,10.19c1.59-.45,3.14-.83,3.13-2.64,0-1.11-1.53-2.09-2.18-1.68-1.37.88-.93,2.63-.95,4.32Z"/>
      <path class="cls-15" d="m133.31,28.06c2.76.66,5.53,1.48,8.15-.47,1.16-.86,2.16,0,3.02.53.9.55-.06,1.18-.34,1.69-.75,1.36-1.53,2.7-2.41,3.98-.42.61-.5,2.02-1.68,1.42-.87-.45-2.36-.45-2.08-2.33.19-1.29-1.19-.53-1.84-.65-.58-.1-1.38-.31-1.32.92.14,2.95,1.32,4.18,4.24,4.18,4.12,0,6.31,1.32,6.83,4.1.62,3.35-1.2,6.66-4.64,8-1.35.53-2.06.99-1.31,2.52.41.84.35,1.81-.79,2.05-1.24.26-1.07-1.04-1.14-1.56-.21-1.7-1.09-2.06-2.63-1.95-1.62.11-3.3.25-4.87-.34-1.03-.39-1.67.16-2.28.77-.93.93-1.66,1.26-2.65-.04-1.04-1.36-.56-2.02.64-2.84,1.78-1.21,3.46-2.58,5.17-3.89,1.06-.82,1.88-1.47,3.24-.11,1.65,1.64-.56,1.89-.75,2.85,2.05.68,2.63.41,2.07-1.96-.57-2.44-1.53-3.35-4.08-3.41-3.04-.07-6.33-.19-7.59-4.03-1.22-3.7-.12-6.16,3.54-7.61,1.18-.47,2.54-.38,3.58-1.23.65-.19,1.29-.39,1.94-.58Zm.41,9.18c-.3-1.07-.55-2.05-.84-3.01-.25-.85-.23-2.07-1.73-1.45-1.28.53-2.05,1.4-1.46,2.81.73,1.71,2.17,1.99,4.03,1.65Zm4.82,9.28c.82-.86,1.4-1.37,1.84-1.98.48-.65.71-1.46.04-2.12-.72-.71-1.78-.98-2.62-.58-.95.45-.16,1.36-.04,2.04.13.74.42,1.46.78,2.63Z"/>
      <path class="cls-13" d="m133.31,28.06c-.65.19-1.29.39-1.94.58-.03-.08-.1-.16-.1-.24,0-1.32-2.05-3.35.37-3.77,1.96-.35,1.16,2.2,1.67,3.43Z"/>
      <path class="cls-8" d="m133.71,37.24c-1.86.34-3.3.06-4.03-1.65-.6-1.41.17-2.28,1.46-2.81,1.5-.62,1.47.6,1.73,1.45.29.96.55,1.94.84,3.01Z"/>
      <g>
        <path class="cls-14" d="m48.98,127.12c-6.03-.44-12.1-.5-17.96-2.36-4.97-1.58-9.34-4.06-12.81-7.98-4.3-4.86-5.18-10.64-4.17-16.82.65-3.97,2.55-7.4,5-10.53,2.31-2.96,4.49-6.01,6.6-9.11,2.91-4.26,5.54-8.68,7.55-13.44.24-.56.22-.83-.31-1.17-.61-.38-1.15-1-1.16-1.71-.01-1.16-.64-1.83-1.32-2.65-1.43-1.73-1.03-3.73.94-4.83.88-.49.75-.89.35-1.54-1.41-2.28-3.3-4.15-5.11-6.09-1.36-1.45-2.66-2.95-2.95-5.04-.33-2.4.8-4.61,3.06-5.49,3.26-1.26,6.43-1.49,9.11,1.37.69.73,1.42.7,2.26.16,1.9-1.23,3.76-2.52,5.83-3.46,2.24-1.02,4.34-.75,6.09.93,1.35,1.29,2.73,1.48,4.36.8.26-.11.53-.2.8-.29,1.93-.64,3.5-.3,4.55,1,1.19,1.47,1.36,3.66.36,5.27-.91,1.47-2.27,2.52-3.55,3.64-1.46,1.28-2.69,2.71-3.26,4.62-.14.45-.13.76.18,1.16.88,1.14.85,1.97-.11,3.01-.25.28-.33.42-.14.78.66,1.25.44,2.42-.55,3.39-.4.39-.41.71-.27,1.2.36,1.29.68,2.6,1.22,3.83.99,2.26,2.63,3.89,4.76,5.11,4.35,2.5,8.06,5.75,11.14,9.72,2.15,2.77,3.25,6.04,4.14,9.35,2.19,8.11,1.95,16.12-1.33,23.94-3.16,7.55-8.9,11.66-16.93,12.75-2.11.29-4.22.53-6.36.49ZM31.84,58.28c-.8.51-.46,1.14-.19,1.76.3.68.79.66,1.41.49,1.24-.33,2.4-.86,3.54-1.43.36-.18.77-.29,1.06.1.28.38-.02.63-.27.9-.89.97-2.04,1.46-3.25,1.88-.9.31-1.19.96-.81,1.79.31.68.88,1,1.59,1.09.92.13,1.84.1,2.75-.05,4.46-.71,8.5-2.64,12.59-4.41.61-.27,1.15-.71,1.47-1.33.25-.49.16-.98-.11-1.42-.28-.45-.71-.18-1.06-.11-.94.17-1.87.38-2.81.58-.51.11-1.02.23-1.15-.49-.13-.67.4-.7.84-.81,1.26-.32,2.51-.64,3.76-.98.47-.13,1.13-.26,1.11-.82-.02-.65-.68-.83-1.25-.94-.14-.03-.28,0-.42,0-.46-.02-.92-.05-1.38-.06-5.15-.05-10.05,1.16-14.84,2.93-.91.34-1.9.56-2.6,1.33Zm-4.93-12.41c.41,1.1,1.35,1.79,2.07,2.65,1.57,1.88,3.18,3.75,3.99,6.08.32.91.63.84,1.32.6,1.64-.56,3.28-1.13,4.95-1.56,3.78-.97,7.62-1.52,11.55-1.28.34.02.68.1.81-.43.57-2.46,2.15-4.24,3.98-5.85.82-.72,1.6-1.51,2.34-2.31.4-.43.82-.91.7-1.59.4-1.77-.76-2.97-2.48-2.55-.65.16-1.28.43-1.92.62-1.99.59-3.74.3-5.28-1.23-1.38-1.38-2.69-1.55-4.46-.7-.8.38-1.56.84-2.32,1.29-1.22.72-2.39,1.53-3.64,2.18-1.53.8-2.79.61-3.92-.67-1.81-2.06-3.98-2.19-6.38-1.43-2.91.92-3.57,4.03-1.31,6.17Zm-10.66,54.83c-.97,3.91-.43,7.72,1.33,11.22,2.71,5.41,7.51,8.41,13.02,10.42,5.6,2.04,11.5,2.18,17.35,2.56,3.19.21,6.38-.14,9.48-.88,3.12-.74,6.09-1.94,8.41-4.31,3.35-3.42,5.23-7.6,6.16-12.24.1-.38.22-.75.29-1.13.96-5.13.67-10.22-.61-15.24-.72-2.81-1.57-5.6-3.16-8.05-2.73-4.22-6.54-7.33-10.74-9.98-1.93-1.22-3.79-2.47-5.11-4.37-1.06-1.81-1.85-3.74-2.31-5.78-.14-.61-.38-.54-.81-.37-2,.8-3.99,1.61-6.02,2.35-2.67.98-5.4,1.78-8.28,1.89-.23,0-.45-.03-.42.28.15,1.52-.83,2.74-1.1,4.15-.37.21-.48.61-.65.95-2.77,5.52-6.4,10.48-9.98,15.48-1.54,2.16-3.34,4.14-4.62,6.48-1.13,2.05-2.14,4.16-2.23,6.57Z"/>
        <path class="cls-7" d="m52.67,68.7c1.32,1.9,3.18,3.15,5.11,4.37,4.19,2.65,8,5.77,10.74,9.98,1.59,2.46,2.45,5.24,3.16,8.05,1.28,5.03,1.57,10.12.61,15.24-.07.38-.19.75-.29,1.13-.31.08-.62.13-.92.24-5.61,2.13-11.41,3.54-17.29,4.67.12-.17.21-.36.35-.51,1.24-1.35,2.21-2.85,2.61-4.66.88-4.04-.69-7.65-4.49-10.19-.5-.34-.69-.69-.7-1.29-.02-2.66-.12-5.32-.14-7.98-.01-2.03-.33-4.06-.18-6.13,1.02.19,1.73.79,2.47,1.32.42.3.83.41,1.28.18.45-.23.63-.64.63-1.14,0-.51-.13-.98-.36-1.43-.76-1.44-1.97-2.4-3.43-3.04-.64-.28-.88-.62-.9-1.33-.03-1.01-.19-2.03-.56-2.99-.21-.57-.54-1.04-1.21-.99-.68.05-.96.6-1.05,1.18-.11.7-.1,1.41-.1,2.12,0,.48.07,1-.66.86-.61-.12-1.56.56-1.7-.75-.13-1.12-.37-2.23-1.07-3.17-.54-.73-1.07-.73-1.58.01-.25.37-.4.78-.52,1.23-.26.97-.11,1.96-.24,2.93-.08.6,0,1.26-.58,1.71-2.79,2.14-4.66,4.9-5.47,8.33-.59,2.52-.7,5.01.63,7.36,1.02,1.81,2.56,2.99,4.49,3.71.37.14.82.15.79.79-.21,4.25-.38,8.5-.56,12.75-.02.59-.15.83-.82.58-1.3-.47-2.38-1.2-3.31-2.21-.97-1.05-1.2-2.36-1.36-3.71-.17-1.45-1.03-2.33-2.07-2.26-1.09.07-1.82.99-1.93,2.43-.01.14,0,.28,0,.43-.09,2.44.97,4.45,2.39,6.32-1.28-.26-2.45-.88-3.69-1.27-4.66-1.48-8.61-4.02-11.77-7.79-.88-1.04-1.58-2.26-2.73-3.07.09-2.41,1.1-4.51,2.23-6.57,1.29-2.34,3.08-4.32,4.62-6.48,3.57-5,7.2-9.97,9.98-15.48.17-.34.27-.74.65-.95.2.38.55.28.85.22.86-.18,1.72-.38,2.58-.59,3.31-.84,6.57-1.87,10.01-2.19,1.86-.17,3.67.29,5.49.04Zm5.31,25.64c-.09,1.78.16,4.06,1.27,6.22,1.14,2.2,4.25,3.87,6.54,3.34,2.35-.54,3.98-2.71,3.91-5.63-.16-6.09-2.15-11.48-6.5-15.87-.72-.72-1.51-1.38-2.46-1.77-1.1-.44-1.81.04-1.88,1.2-.03.6-.02,1.21-.06,1.8-.26,3.38-.83,6.73-.82,10.71Zm-24.67-10.84c0-.25,0-.5,0-.74-.02-.7.09-1.53-.77-1.79-.79-.24-1.41.25-1.94.81-1.93,2.06-3.86,4.11-5.78,6.18-1.49,1.6-2.95,3.21-3.97,5.19-1.82,3.56-1.07,6.9,2.71,8.37,2.89,1.12,5.63.36,6.38-3.17.51-2.42,1.19-4.8,1.75-7.2.59-2.54,1.63-4.98,1.62-7.65Z"/>
        <path class="cls-3" d="m53.79,112.39c5.88-1.13,11.68-2.54,17.29-4.67.29-.11.61-.16.92-.24-.93,4.64-2.81,8.82-6.16,12.24-2.32,2.36-5.28,3.56-8.41,4.31-3.1.74-6.29,1.08-9.48.88-5.85-.38-11.75-.51-17.35-2.56-5.51-2.01-10.31-5.01-13.02-10.42-1.76-3.51-2.3-7.31-1.33-11.22,1.15.81,1.85,2.03,2.73,3.07,3.16,3.77,7.1,6.31,11.77,7.79,1.24.39,2.4,1.01,3.69,1.27,1.89,1.57,3.9,2.93,6.37,3.41.46.09.36.47.36.77.02,1.06,0,2.12.18,3.17.19,1.13.76,1.76,1.73,1.79.95.03,1.72-.62,1.93-1.64.16-.76.22-1.54.23-2.32.03-1.8.08-1.83,1.84-2.14.51-.09.72.04.71.58-.03.85-.03,1.7,0,2.55.04,1.04.7,1.7,1.65,1.71.83,0,1.46-.59,1.56-1.54.16-1.44.29-2.88.42-4.32.03-.4.02-.82.39-1.05.69-.42,1.19-1.11,1.98-1.4Z"/>
        <path class="cls-3" d="m58.62,42.18c.12.68-.3,1.16-.7,1.59-.75.8-1.52,1.58-2.34,2.31-1.84,1.61-3.42,3.39-3.98,5.85-.12.53-.46.45-.81.43-3.92-.23-7.76.31-11.55,1.28-1.67.43-3.31,1-4.95,1.56-.69.23-1,.31-1.32-.6-.81-2.33-2.42-4.2-3.99-6.08-.72-.86-1.66-1.55-2.07-2.65,1-.51,1.75.09,2.5.59.88.59,1.66,1.36,2.6,1.81,2.82,1.35,5.64,1.5,8.31-.45,2.28-1.66,4.75-2.54,7.65-2.12,1.73.25,3.37-.05,4.96-1.05,1.74-1.09,3.67-1.93,5.69-2.46Z"/>
        <path class="cls-7" d="m58.62,42.18c-2.02.53-3.95,1.37-5.69,2.46-1.59,1-3.23,1.3-4.96,1.05-2.9-.42-5.37.46-7.65,2.12-2.68,1.95-5.49,1.8-8.31.45-.94-.45-1.72-1.23-2.6-1.81-.75-.5-1.5-1.1-2.5-.59-2.26-2.14-1.6-5.25,1.31-6.17,2.4-.75,4.57-.62,6.38,1.43,1.13,1.28,2.39,1.47,3.92.67,1.25-.65,2.43-1.46,3.64-2.18.76-.45,1.52-.91,2.32-1.29,1.77-.85,3.07-.68,4.46.7,1.53,1.53,3.29,1.82,5.28,1.23.65-.19,1.27-.46,1.92-.62,1.73-.42,2.88.78,2.48,2.55Zm-14.11-2.84c-1,.65-2.42,1.22-3.4,2.49-.27.35-.42.75-.51,1.15-.28,1.36.83,2.51,2,2.01,1.08-.46,2.2-.79,3.28-1.22,1.48-.59,2.02-1.57,1.59-2.66-.35-.9-1.62-1.77-2.97-1.77Zm-13.36,6.45c1.11-.28,2.03-.82,2.69-1.66.4-.51.34-1.15-.17-1.73-.91-1.02-2.09-1.54-3.34-1.92-.94-.28-2.03.18-2.43,1.08-.38.86-1.12,1.83-.19,2.73.94.91,2.27,1.06,3.43,1.49Zm21.2-1.98c1.17-.29,2.35-.57,3.3-1.37.27-.23.56-.48.32-.9-.2-.34-.5-.52-.89-.46-.98.15-1.97.26-2.89.64-.59.24-.8.8-.74,1.39.04.48.41.71.91.71Z"/>
        <path class="cls-11" d="m50.66,54.08c.14,0,.29-.02.42,0,.57.12,1.23.3,1.25.94.02.56-.64.69-1.11.82-1.25.35-2.51.66-3.76.98-.44.11-.97.14-.84.81.13.72.65.6,1.15.49.93-.2,1.87-.41,2.81-.58.35-.06.78-.33,1.06.11.27.44.36.92.11,1.42-.32.63-.86,1.07-1.47,1.33-4.09,1.77-8.13,3.7-12.59,4.41-.91.15-1.84.18-2.75.05-.7-.1-1.28-.42-1.59-1.09-.38-.83-.09-1.48.81-1.79,1.21-.41,2.36-.9,3.25-1.88.25-.27.55-.52.27-.9-.29-.39-.69-.28-1.06-.1-1.14.57-2.29,1.1-3.54,1.43-.62.16-1.11.18-1.41-.49-.27-.62-.61-1.25.19-1.76.28-.04.61,0,.82-.13,1.63-1.12,3.69-1.09,5.38-2.03.34-.19.71-.26,1.2,0-.33.13-.3.42-.43.61-.38.56-.76,1.04-.11,1.73.63.67,1.25.75,2.09.53,1.35-.35,2.58-.94,3.79-1.58.64-.34,1.48-.86,1.2-1.67-.43-1.21.17-1.24,1.03-1.36.6-.08,1.19-.1,1.79-.13.68-.03,1.4.23,2.05-.17Z"/>
        <path class="cls-3" d="m52.67,68.7c-1.83.25-3.64-.21-5.49-.04-3.45.32-6.7,1.35-10.01,2.19-.85.22-1.71.42-2.58.59-.29.06-.64.16-.85-.22.27-1.41,1.26-2.63,1.1-4.15-.03-.31.19-.27.42-.28,2.88-.11,5.6-.91,8.28-1.89,2.02-.74,4.01-1.56,6.02-2.35.43-.17.67-.23.81.37.46,2.04,1.25,3.97,2.31,5.78Z"/>
        <path class="cls-12" d="m50.66,54.08c-.65.4-1.37.14-2.05.17-.6.03-1.19.04-1.79.13-.86.12-1.46.15-1.03,1.36.29.81-.56,1.33-1.2,1.67-1.21.64-2.44,1.24-3.79,1.58-.84.22-1.46.14-2.09-.53-.65-.69-.28-1.17.11-1.73.13-.19.1-.48.43-.61-.49-.25-.86-.18-1.2,0-1.69.94-3.75.91-5.38,2.03-.21.14-.54.09-.82.13.7-.77,1.69-1,2.6-1.33,4.79-1.77,9.69-2.98,14.84-2.93.46,0,.92.04,1.38.06Z"/>
        <path class="cls-14" d="m53.79,112.39c-.79.29-1.29.98-1.98,1.4-.38.23-.36.65-.39,1.05-.12,1.44-.26,2.89-.42,4.32-.1.95-.74,1.55-1.56,1.54-.95,0-1.61-.67-1.65-1.71-.03-.85-.02-1.7,0-2.55.02-.54-.19-.67-.71-.58-1.77.32-1.81.34-1.84,2.14-.01.78-.07,1.56-.23,2.32-.21,1.02-.98,1.66-1.93,1.64-.97-.03-1.54-.66-1.73-1.79-.18-1.06-.16-2.11-.18-3.17,0-.3.1-.68-.36-.77-2.48-.48-4.48-1.84-6.37-3.41-1.42-1.87-2.48-3.87-2.39-6.32,0-.14,0-.28,0-.43.1-1.44.84-2.36,1.93-2.43,1.04-.07,1.9.82,2.07,2.26.16,1.36.39,2.66,1.36,3.71.93,1.01,2.01,1.74,3.31,2.21.67.24.8,0,.82-.58.17-4.25.35-8.5.56-12.75.03-.64-.42-.65-.79-.79-1.93-.72-3.47-1.9-4.49-3.71-1.33-2.36-1.22-4.84-.63-7.36.81-3.44,2.68-6.19,5.47-8.33.58-.44.5-1.11.58-1.71.13-.97-.02-1.95.24-2.93.12-.45.27-.86.52-1.23.51-.75,1.04-.74,1.58-.01.7.94.94,2.05,1.07,3.17.15,1.31,1.09.63,1.7.75.73.14.65-.39.66-.86,0-.71,0-1.42.1-2.12.09-.57.38-1.12,1.05-1.18.67-.05,1,.42,1.21.99.36.96.52,1.98.56,2.99.02.72.26,1.05.9,1.33,1.45.64,2.67,1.6,3.43,3.04.24.45.37.92.36,1.43,0,.5-.19.91-.63,1.14-.45.23-.85.12-1.28-.18-.74-.52-1.45-1.13-2.47-1.32-.15,2.07.17,4.1.18,6.13.02,2.66.12,5.32.14,7.98,0,.6.19.95.7,1.29,3.79,2.54,5.37,6.15,4.49,10.19-.4,1.82-1.37,3.31-2.61,4.66-.14.15-.23.34-.35.51Zm-7.49-6.76h-.17c-.12,1.84-.23,3.68-.35,5.52-.02.27-.15.61.21.74.59.21,1.96-.79,1.97-1.43.01-1.95.02-3.9.02-5.85,0-1.42-.05-2.84-.02-4.25.02-.97-.79-.98-1.32-1.04-.55-.07-.32.58-.33.9-.03,1.81-.02,3.61-.02,5.42Zm1.62-17.83s.07,0,.11,0c0-2.09,0-4.18,0-6.27,0-.5.01-.92-.72-.84-.58.07-1.09-.01-1.06.89.13,4.1.2,8.21.26,12.31,0,.66.4.75.86.83.65.1.54-.39.54-.76,0-2.05,0-4.11,0-6.16Zm-5.67-3.36c-1.03,1.15-1.59,2.43-1.83,3.84-.24,1.39-.2,2.75.6,3.98.17.26.43.59.75.49.33-.1.48-.45.48-.83,0-2.49,0-4.99,0-7.48Zm9.4,23.65c1.25-1.85,1.23-4.07,0-5.34v5.34Z"/>
        <path class="cls-12" d="m57.97,94.34c-.01-3.98.56-7.33.82-10.71.05-.6.03-1.2.06-1.8.06-1.16.78-1.64,1.88-1.2.96.38,1.75,1.04,2.46,1.77,4.34,4.4,6.34,9.79,6.5,15.87.08,2.92-1.56,5.09-3.91,5.63-2.29.52-5.41-1.14-6.54-3.34-1.12-2.16-1.36-4.44-1.27-6.22Z"/>
        <path class="cls-12" d="m33.3,83.5c0,2.67-1.03,5.11-1.62,7.65-.56,2.41-1.24,4.79-1.75,7.2-.75,3.53-3.49,4.29-6.38,3.17-3.78-1.47-4.53-4.81-2.71-8.37,1.01-1.98,2.48-3.59,3.97-5.19,1.92-2.07,3.85-4.12,5.78-6.18.53-.56,1.15-1.05,1.94-.81.86.26.75,1.09.77,1.79,0,.25,0,.5,0,.74Z"/>
        <path class="cls-12" d="m44.51,39.34c1.35,0,2.62.88,2.97,1.77.42,1.09-.12,2.07-1.59,2.66-1.08.43-2.2.76-3.28,1.22-1.17.49-2.28-.65-2-2.01.08-.41.24-.8.51-1.15.98-1.26,2.4-1.83,3.4-2.49Z"/>
        <path class="cls-12" d="m31.15,45.8c-1.16-.44-2.49-.58-3.43-1.49-.94-.91-.2-1.87.19-2.73.4-.9,1.49-1.37,2.43-1.08,1.25.38,2.43.9,3.34,1.92.52.58.58,1.22.17,1.73-.66.83-1.57,1.38-2.69,1.66Z"/>
        <path class="cls-12" d="m52.35,43.82c-.49,0-.86-.23-.91-.71-.05-.58.16-1.15.74-1.39.92-.37,1.91-.49,2.89-.64.39-.06.69.12.89.46.24.42-.05.67-.32.9-.95.81-2.12,1.08-3.3,1.37Z"/>
        <path class="cls-7" d="m46.31,105.62c0-1.81-.02-3.61.02-5.42,0-.32-.22-.97.33-.9.53.06,1.34.08,1.32,1.04-.03,1.42.02,2.84.02,4.25,0,1.95,0,3.9-.02,5.85,0,.64-1.38,1.64-1.97,1.43-.36-.13-.23-.47-.21-.74.11-1.84.23-3.68.35-5.51h.17Z"/>
        <path class="cls-7" d="m47.93,87.79c0,2.05,0,4.11,0,6.16,0,.37.11.86-.54.76-.46-.07-.85-.17-.86-.83-.06-4.11-.13-8.21-.26-12.31-.03-.9.49-.82,1.06-.89.73-.09.72.34.72.84,0,2.09,0,4.18,0,6.27-.04,0-.07,0-.11,0Z"/>
        <path class="cls-7" d="m42.26,84.43c0,2.49,0,4.99,0,7.48,0,.38-.15.74-.48.83-.32.09-.58-.23-.75-.49-.81-1.23-.84-2.6-.6-3.98.24-1.4.8-2.68,1.83-3.84Z"/>
        <path class="cls-7" d="m51.66,108.08v-5.34c1.23,1.27,1.25,3.49,0,5.34Z"/>
      </g>
      <ellipse class="cls-5" cx="33.97" cy="61.79" rx="2.02" ry="7.23" transform="translate(-36.47 58.66) rotate(-58.65)"/>
      <ellipse class="cls-5" cx="36.5" cy="55.25" rx="8.06" ry="3.22" transform="translate(-15.75 14.58) rotate(-18.65)"/>
    </g>
  </g>
</svg>