<?xml version="1.0" encoding="UTF-8"?>
<svg id="Layer_2" data-name="Layer 2" xmlns="http://www.w3.org/2000/svg" viewBox="0 0 226.11 226.43">
  <defs>
    <style>
      .cls-1 {
        fill: #26b081;
      }

      .cls-1, .cls-2, .cls-3, .cls-4, .cls-5, .cls-6, .cls-7, .cls-8, .cls-9, .cls-10, .cls-11 {
        stroke-width: 0px;
      }

      .cls-2 {
        fill: #020202;
      }

      .cls-3 {
        fill: #fff;
      }

      .cls-4 {
        fill: #fafafa;
      }

      .cls-5 {
        fill: #e35f5a;
      }

      .cls-6 {
        fill: #f4f4f4;
      }

      .cls-7 {
        fill: #fdfdfd;
      }

      .cls-8 {
        fill: #19191a;
      }

      .cls-9 {
        fill: #bbcfd6;
      }

      .cls-10 {
        fill: #fa969a;
      }

      .cls-11 {
        fill: #111;
      }
    </style>
  </defs>
  <g id="Layer_1-2" data-name="Layer 1">
    <g>
      <path class="cls-3" d="m127.54,127.61c4.02-.63,5.32,1.17,5.29,5.45-.19,24.47-.09,48.95-.15,73.43-.02,9.43-3.78,14.43-12.83,16.23-7.65,1.52-15.28,3.47-23.13,3.7-7.66.23-13.29-4.4-14.46-11.56-.62-3.77,1.01-7.73,3.78-10.88s6.99-5.16,11.32-5.81c7.39-1.11,7.49-6.93,7.49-7.96,0-20.14.04-40.29.09-60.43,0-.23.05-.45.11-.68l1.82-1.37c1.36-.02,2.71-.03,4.07-.05.39.03.79.06,1.18.09,4.65,0,9.3,0,13.95-.02l1.49-.14Z"/>
      <path class="cls-3" d="m142.6,123.86c-4.07.04-2.82,6.69-2.05,11.01,4.39,24.68,8.49,49.42,12.75,74.12,1.64,9.52,6.2,13.94,15.43,14.24,7.8.25,15.66.94,23.44-.14,7.59-1.05,12.35-6.67,12.27-14.1-.04-3.91-2.32-7.64-5.59-10.36-3.41-2.83-7.78-4.04-12.16-3.97-7.48.12-8.57-5.74-8.75-6.78-3.46-20.34-6.95-40.68-10.46-61.01-.04-.23-.13-.45-.23-.67l-2.03-1.08c-1.34.21-2.68.42-4.02.63-.38.09-.76.19-1.15.29-4.59.77-9.17,1.55-13.76,2.32-.41.03-9.69-5.49-3.71-4.51Z"/>
      <g>
        <path class="cls-3" d="m116.59,63.82c-9.88,14.72-24.35,26.52-41.08,32.53-21.88,7.68-50.59,5.68-63.24-16.32-3.01-4.94-4.95-10.34-6.68-15.42l4.51-1.81c2.18,5.01,4.37,9.7,7.36,13.8,15.17,21.7,48.04,15.77,66.53,1.41,6.87-5.23,12.85-11.75,17.53-19.01.6-.92,1.26-2.03,1.73-2.93,0,0,13.34,7.74,13.34,7.74h0Z"/>
        <ellipse class="cls-3" cx="10.23" cy="59.64" rx="7.23" ry="2.02" transform="translate(-44.94 34.77) rotate(-56)"/>
        <ellipse class="cls-3" cx="3.81" cy="56.82" rx="3.22" ry="8.06" transform="translate(-15.51 3.25) rotate(-16)"/>
      </g>
      <path class="cls-1" d="m195.97,154.38c-9.12,1.06-18.21.84-27.21-.86-10-1.89-18-5.78-20.39-17.1-1.24-5.87-6.69-6.69-14-3.35-14.69,6.73-28.81,14.78-44.37,19.54-10.09,3.09-20.46,4.54-30.93,5.36-.46.04-.93.02-1.39.02-10.39-.11-11.87-2.65-6.8-11.39C78.3,99.23,105.72,51.86,133.15,4.49c.62-1.07,1.24-2.14,1.91-3.17,1.18-1.81,2.4-1.72,3.51.06,1.63,2.62,3.26,5.23,4.8,7.9,13.49,23.37,26.95,46.75,40.43,70.12,13.45,23.3,26.91,46.6,40.37,69.89q2.92,5.06-2.77,5.08c-8.48.01-16.96,0-25.44,0Z"/>
      <g>
        <path class="cls-3" d="m155.42,58.48c1.61-.16,3.19.2,4.63.82,5.64,2.62,10.5,6.41,15.33,10.15,4.8,3.84,9.33,7.93,13.63,12.26,10.68,10.92,20.29,23.21,26.72,37.14,5.92,14.38,5.68,30.28,3.97,45.35-.71,5.93-1.8,11.76-3,17.56l-4.79-.85c.74-5.74,1.37-11.49,1.62-17.23.5-13.83-.19-28.38-6.41-40.84-11.54-19.92-30.42-37.39-50.59-48.35-.75-.36-1.47-.74-2.15-.93.05.03.22.08.28.1.74.19,1.5.24,2.28.16l-1.52-15.35h0Z"/>
        <ellipse class="cls-3" cx="208.21" cy="179" rx="7.23" ry="2.02" transform="translate(-5.45 6.54) rotate(-1.78)"/>
        <ellipse class="cls-3" cx="212.67" cy="184.86" rx="8.06" ry="3.22" transform="translate(-44.75 299.47) rotate(-65)"/>
      </g>
      <polygon class="cls-1" points="166.38 49.44 180.19 71.06 206.5 125.31 154.04 107.26 143.38 48.88 166.38 49.44"/>
      <path class="cls-11" d="m139.53,65.86c-1.1,2.19-1.96,4.25-3.11,6.14-5.93,9.7-17.09,11.3-25.53,3.72-11.15-10.03-13.42-31.34-4.63-43.56,5.96-8.29,16.06-9.52,23.87-2.93,3.67,3.09,6.21,6.98,8.25,11.72,1.62-3.02,3.09-5.74,5.19-8.07,7.19-7.96,18.13-7.52,24.55,1.05,7.69,10.27,6.66,27.56-2.18,36.55-7.89,8.02-18.77,6.97-24.99-2.42-.45-.68-.88-1.36-1.41-2.2Zm-.66-10.05c-.03-9.44-2.95-17.82-7.89-23.5-7.59-8.73-18.51-7.63-24.2,2.44-3.67,6.5-4.4,13.54-3.36,20.73,1.12,7.69,3.86,14.74,10.17,19.79,6.86,5.51,14.96,4.32,20.12-2.8,3.79-5.23,5.07-11.2,5.16-16.66Zm32.3-5.63c.03-6.53-1.6-12.49-6.12-17.39-4.71-5.1-11.2-5.85-16.77-2.01-4.65,3.2-7.08,7.91-8.67,13.13-.2.66-.05,1.5.13,2.2.9,3.5,1.04,7.05.9,10.63-.07,1.87-.8,3.88-.32,5.56,1.53,5.28,4.69,9.43,10.07,11.33,5.09,1.8,9.49.05,13.14-3.49,5.6-5.43,7.57-12.37,7.64-19.97Z"/>
      <path class="cls-11" d="m123.25,16.02c.45,1.68-.55,2.34-2.2,2.52-5.05.57-9.61,2.33-13.59,5.53-.4.32-.81.93-1.44.58-.58-.33-.35-1-.35-1.53.02-7.2,7.24-15.15,14.24-15.8,1.16-.11,1.69.17,1.94,1.34.52,2.38,1.24,4.72,1.4,7.36Z"/>
      <path class="cls-11" d="m162.8,25.03c-4.21-3.77-8.8-4.82-13.56-5.36-1.7-.19-2-1.06-1.27-2.48.17-.33.27-.7.38-1.06,2.07-6.76.75-6.74,7.89-2.92,4.41,2.36,6.39,6.17,6.57,11.83Z"/>
      <path class="cls-4" d="m138.86,55.81c-.09,5.46-1.37,11.43-5.16,16.66-5.15,7.12-13.25,8.31-20.12,2.8-6.3-5.06-9.05-12.1-10.17-19.79-1.05-7.2-.32-14.24,3.36-20.73,5.69-10.07,16.61-11.17,24.2-2.44,4.94,5.68,7.86,14.06,7.89,23.5Zm-13.63-.21c-.29-1.84-.36-3.73-1.32-5.42-.68-1.19-1.53-2.23-3.01-2.2-1.5.03-2.33,1.2-2.86,2.39-1.07,2.39-1.15,4.93-.54,7.44.51,2.1,1.19,4.65,3.75,4.64,2.76-.02,3.24-2.65,3.68-4.89.13-.64.2-1.29.3-1.95Z"/>
      <path class="cls-4" d="m171.17,50.19c-.07,7.6-2.04,14.54-7.64,19.97-3.65,3.54-8.05,5.29-13.14,3.49-5.38-1.9-8.54-6.05-10.07-11.33-.49-1.68.24-3.7.32-5.56.14-3.58,0-7.13-.9-10.63-.18-.71-.34-1.54-.13-2.2,1.6-5.22,4.02-9.93,8.67-13.13,5.57-3.83,12.06-3.09,16.77,2.01,4.52,4.89,6.14,10.86,6.12,17.39Zm-18.59,3.05c.08-1.27-.29-2.7-.92-4.08-.53-1.16-1.23-2.11-2.7-2.05-1.46.05-2.09,1.08-2.55,2.25-.56,1.4-.85,2.86-.74,4.38.25,3.44,1.82,5.96,3.68,5.89,1.89-.07,3.26-2.67,3.23-6.38Z"/>
      <path class="cls-11" d="m125.24,55.6c-.1.66-.18,1.31-.3,1.95-.45,2.24-.92,4.88-3.68,4.89-2.56.01-3.24-2.53-3.75-4.64-.61-2.5-.53-5.05.54-7.44.53-1.2,1.36-2.36,2.86-2.39,1.48-.03,2.33,1.01,3.01,2.2.96,1.68,1.03,3.57,1.32,5.42Zm-5.53-3.83c-.88.04-1.15.69-1.21,1.47-.07,1,.27,1.98,1.27,2.17.85.17,1.24-.73,1.26-1.47.02-.91-.09-1.88-1.32-2.17Z"/>
      <path class="cls-8" d="m152.58,53.23c.03,3.71-1.35,6.31-3.23,6.38-1.86.07-3.43-2.45-3.68-5.89-.11-1.52.18-2.98.74-4.38.46-1.16,1.09-2.19,2.55-2.25,1.46-.05,2.17.9,2.7,2.05.63,1.37,1,2.81.92,4.08Zm-4.47.32c.57-.22.97-.63.97-1.38,0-.79-.17-1.58-1.07-1.69-.77-.09-1.16.59-1.18,1.27-.02.77.33,1.43,1.27,1.8Z"/>
      <path class="cls-6" d="m119.71,51.77c1.23.29,1.34,1.26,1.32,2.17-.02.74-.4,1.64-1.26,1.47-1-.2-1.33-1.18-1.27-2.17.05-.78.32-1.43,1.21-1.47Z"/>
      <path class="cls-6" d="m148.11,53.55c-.95-.37-1.3-1.03-1.27-1.8.02-.67.41-1.36,1.18-1.27.89.11,1.06.91,1.07,1.69,0,.75-.41,1.16-.97,1.38Z"/>
      <path class="cls-7" d="m163.52,80.62c2.1-.24,4.03.04,5.6,1.61.21.21.48.31.78.35.44.06.73-.24.65-.67-.07-.41-.33-.7-.67-.91-.61-.37-1.25-.68-1.95-.86-1.53-.41-3.01-.28-4.41.48Zm-36.93,8.93c-1.25.16-2.34.66-3.31,1.46-1.08.88-1.66,1.99-1.57,3.41.02.34.02.79.38.84.35.05.45-.4.56-.69.23-.62.42-1.26.69-1.86.67-1.47,1.82-2.45,3.24-3.16Z"/>
      <path class="cls-2" d="m147.64,111.59c-5.16.73-11-.38-16.21-4.15-2.77-2.01-4.95-4.52-6.27-7.72-.55-1.33-.87-2.72-.69-4.17.33-2.56,1.9-4.12,4.2-5.04,2.13-.85,4.37-.91,6.62-.82,1.91.07,3.82.32,5.74.25,3.86-.14,7.49-1.18,10.94-2.9,2.15-1.07,4.17-2.4,6.36-3.4,1.52-.69,3.08-1.26,4.75-1.44,2.68-.29,5.01.82,6.16,2.97.72,1.34.9,2.8.8,4.3-.2,2.85-1.18,5.46-2.54,7.93-2.3,4.21-5.38,7.73-9.42,10.36-2.85,1.86-5.94,3.11-10.44,3.83Zm-4.97-2c-.29.54-.29.54.26.59,3.67.32,7.2-.26,10.59-1.67,4.32-1.8,7.79-4.69,10.58-8.42.19-.26.43-.49-.15-.56-.2-.02-.41-.17-.59-.29-1.42-.99-2.91-.76-4.43-.3-.23.07-.46.12-.68.2-2.35.86-3.74,2.72-4.89,4.8-.24.44-.4.51-.93.41-1.07-.2-2.19-.32-3.28-.13-3.18.55-5.14,2.59-6.49,5.37Zm-6.81-16.03c3.29,1.98,6.86,2.86,10.66,2.36,5.99-.79,10.59-3.92,14.1-8.76.85-1.03,1.47-2.2,2.1-3.46-.32.07-.53.12-.75.17-2,.5-3.79,1.45-5.56,2.46-2.55,1.46-5.07,2.96-7.92,3.78-2.72.79-5.47,1.32-8.32,1.22-2.17-.08-4.33-.33-6.5-.34-.34,0-.69-.03-1.05.15,1.06.9,2.08,1.77,3.25,2.42Z"/>
      <path class="cls-2" d="m163.52,80.62c1.41-.77,2.88-.89,4.41-.48.69.18,1.34.49,1.95.86.35.21.6.5.67.91.08.44-.21.73-.65.67-.29-.04-.57-.14-.78-.35-1.58-1.57-3.51-1.85-5.6-1.61Z"/>
      <path class="cls-2" d="m126.58,89.55c-1.42.71-2.58,1.7-3.24,3.16-.27.6-.45,1.24-.69,1.86-.11.3-.22.74-.56.69-.36-.05-.36-.5-.38-.84-.09-1.42.49-2.53,1.57-3.41.97-.79,2.06-1.3,3.31-1.46Z"/>
      <path class="cls-7" d="m160.61,87.16c-3.5,4.85-8.11,7.98-14.1,8.76-3.8.5-7.37-.38-10.66-2.36.09-.9.17-.99,1.06-1.11.17-.02.34-.01.5,0,1.99.16,3.98.2,5.96-.13,1.99-.33,3.92-.85,5.85-1.44,2.21-.68,4.31-1.58,6.34-2.66,1-.53,1.95-1.16,3.03-1.53.64-.22,1.29-.43,1.74.35.05.09.15.13.27.12Z"/>
      <path class="cls-10" d="m142.67,109.59c1.34-2.78,3.31-4.82,6.49-5.37,1.09-.19,2.21-.07,3.28.13.53.1.69.03.93-.41,1.14-2.08,2.54-3.94,4.89-4.8.22-.08.45-.14.68-.2.07.15.22.14.34.18.65.19,1.3.36,1.91.66.64.31.66.36.21.89-.44.51-.9,1.02-1.39,1.48-2.03,1.88-4.31,3.39-6.79,4.61-2.2,1.08-4.48,1.88-6.88,2.35-1.22.23-2.45.34-3.68.49Z"/>
      <path class="cls-5" d="m142.67,109.59c1.23-.15,2.46-.26,3.68-.49,2.4-.46,4.69-1.27,6.88-2.35,2.48-1.22,4.76-2.73,6.79-4.61.49-.46.95-.97,1.39-1.48.46-.53.43-.58-.21-.89-.61-.3-1.26-.47-1.91-.66-.13-.04-.27-.04-.34-.18,1.51-.46,3.01-.68,4.43.3.18.12.38.27.59.29.59.06.35.3.15.56-2.8,3.73-6.26,6.62-10.58,8.42-3.39,1.41-6.93,1.99-10.59,1.67-.55-.05-.55-.06-.26-.59Z"/>
      <path class="cls-9" d="m160.61,87.16c-.11.01-.21-.03-.27-.12-.45-.78-1.1-.57-1.74-.35-1.08.37-2.03,1-3.03,1.53-2.04,1.08-4.14,1.98-6.34,2.66-1.93.59-3.86,1.12-5.85,1.44-1.98.32-3.97.29-5.96.13-.17-.01-.34-.02-.5,0-.88.11-.96.2-1.06,1.11-1.18-.66-2.19-1.52-3.25-2.42.37-.18.71-.15,1.05-.15,2.17.01,4.33.26,6.5.34,2.85.1,5.6-.43,8.32-1.22,2.85-.82,5.37-2.32,7.92-3.78,1.77-1.01,3.57-1.96,5.56-2.46.21-.05.43-.1.75-.17-.63,1.26-1.25,2.43-2.1,3.46Z"/>
    </g>
  </g>
</svg>